<svg xmlns="http://www.w3.org/2000/svg" width="48" height="48" viewBox="0 0 48 48" fill="none">
  <g clip-path="url(#clip0_1825_10795)">
    <path d="M18.2398 0.701763L18.7768 2.88276C16.6534 3.40892 14.6208 4.25026 12.7468 5.37876L11.5978 3.44976C13.6583 2.20167 15.9 1.27503 18.2398 0.701763ZM29.7598 0.701763L29.2258 2.87976C31.3492 3.40592 33.3817 4.24726 35.2558 5.37576L36.4198 3.44676C34.3505 2.20191 32.1052 1.27649 29.7598 0.701763ZM3.44979 11.5918C2.20528 13.6562 1.27888 15.8963 0.70179 18.2368L2.88279 18.7768C3.40895 16.6534 4.25029 14.6208 5.37879 12.7468L3.44979 11.5888V11.5918ZM2.24979 23.9998C2.24606 22.9091 2.32731 21.8198 2.49279 20.7418L0.27279 20.3998C-0.0886514 22.7841 -0.0886514 25.2094 0.27279 27.5938L2.49279 27.2578C2.32731 26.1797 2.24606 25.0904 2.24979 23.9998ZM36.4018 44.5438L35.2498 42.6238C33.3804 43.7545 31.3503 44.595 29.2288 45.1168L29.7688 47.3008C32.1056 46.7197 34.3416 45.7903 36.4018 44.5438ZM45.7528 23.9998C45.7528 25.0938 45.6708 26.1798 45.5068 27.2578L47.7268 27.5938C48.0882 25.2094 48.0882 22.7841 47.7268 20.3998L45.5068 20.7418C45.6708 21.8218 45.7528 22.9078 45.7528 23.9998ZM47.3008 29.7538L45.1168 29.2138C44.5912 31.3392 43.7498 33.3738 42.6208 35.2498L44.5498 36.4108C45.7965 34.3428 46.7239 32.0985 47.3008 29.7538ZM27.2608 45.5038C25.1008 45.8338 22.9018 45.8338 20.7418 45.5038L20.4058 47.7298C22.7882 48.0906 25.2114 48.0906 27.5938 47.7298L27.2578 45.5068L27.2608 45.5038ZM41.5108 36.8998C40.2153 38.6581 38.6606 40.2097 36.8998 41.5018L38.2378 43.3168C40.1772 41.8922 41.8914 40.1841 43.3228 38.2498L41.5108 36.8998ZM36.8998 6.48876C38.6608 7.78476 40.2148 9.33876 41.5108 11.0998L43.3228 9.74976C41.8964 7.81436 40.1873 6.10427 38.2528 4.67676L36.8998 6.48876ZM6.48879 11.0998C7.78359 9.33828 9.3383 7.78356 11.0998 6.48876L9.74979 4.67676C7.81439 6.10313 6.1043 7.81221 4.67679 9.74676L6.48879 11.0968V11.0998ZM44.5528 11.5888L42.6208 12.7498C43.7518 14.6188 44.5948 16.6498 45.1168 18.7708L47.3008 18.2308C46.7234 15.8914 45.797 13.6523 44.5528 11.5888ZM20.7388 2.49276C22.8986 2.16783 25.0949 2.16783 27.2548 2.49276L27.5908 0.272763C25.2084 -0.0880726 22.7852 -0.0880726 20.4028 0.272763L20.7388 2.49276ZM7.64079 43.9198L2.99979 44.9998L4.07979 40.3528L1.89279 39.8428L0.80979 44.4868C0.72229 44.8593 0.731252 45.248 0.835827 45.6161C0.940403 45.9842 1.13714 46.3196 1.40743 46.5905C1.67772 46.8613 2.01263 47.0588 2.38051 47.1642C2.74838 47.2696 3.13706 47.2794 3.50979 47.1928L8.15379 46.1218L7.64079 43.9198ZM2.35779 37.8358L4.55379 38.3398L5.30379 35.1208C4.20817 33.2846 3.39126 31.2959 2.87979 29.2198L0.69879 29.7598C1.18835 31.7482 1.93037 33.6657 2.90679 35.4658L2.35779 37.8358ZM12.8578 42.7048L9.63879 43.4548L10.1488 45.6478L12.5188 45.0958C14.3188 46.0768 16.2358 46.8178 18.2248 47.3068L18.7648 45.1228C16.6933 44.6071 14.7098 43.7872 12.8788 42.6898L12.8578 42.7048ZM23.9998 4.49976C21.439 4.50055 18.9035 5.00571 16.5379 5.98641C14.1724 6.9671 12.0231 8.40412 10.213 10.2154C8.40278 12.0267 6.96708 14.1768 5.98784 16.543C5.0086 18.9091 4.505 21.445 4.50579 24.0058C4.50914 27.6736 5.54686 31.2661 7.49979 34.3708L5.62479 42.3748L13.6198 40.4998C17.9929 43.1244 23.22 43.9319 28.1812 42.7491C33.1424 41.5664 37.4431 38.4876 40.1617 34.1723C42.8803 29.857 43.8006 24.6486 42.7255 19.663C41.6503 14.6773 38.6653 10.3111 34.4098 7.49976C31.2928 5.53657 27.6835 4.49642 23.9998 4.49976Z" fill="#000"/>
  </g>
  <defs>
    <clipPath id="clip0_1825_10795">
      <rect width="48" height="48" fill="white"/>
    </clipPath>
  </defs>
</svg>