<svg xmlns="http://www.w3.org/2000/svg" width="48" height="48" viewBox="0 0 48 48" fill="none">
  <g clip-path="url(#clip0_1825_10366)">
    <mask id="mask0_1825_10366" style="mask-type:luminance" maskUnits="userSpaceOnUse" x="0" y="0" width="48" height="48">
      <path d="M0 0H48V48H0V0Z" fill="white"/>
    </mask>
    <g mask="url(#mask0_1825_10366)">
      <path fill-rule="evenodd" clip-rule="evenodd" d="M34.83 28.7641C34.234 28.4661 31.312 27.0301 30.768 26.8301C30.224 26.6301 29.828 26.5341 29.43 27.1301C29.034 27.7241 27.896 29.0621 27.55 29.4581C27.202 29.8561 26.856 29.9041 26.262 29.6081C25.668 29.3081 23.752 28.6821 21.482 26.6581C19.716 25.0821 18.522 23.1361 18.176 22.5401C17.83 21.9461 18.138 21.6241 18.436 21.3281C18.704 21.0621 19.03 20.6341 19.328 20.2881C19.626 19.9421 19.724 19.6921 19.922 19.2941C20.122 18.8981 20.022 18.5521 19.872 18.2541C19.724 17.9561 18.536 15.0301 18.04 13.8401C17.558 12.6821 17.068 12.8401 16.704 12.8201C16.356 12.8041 15.96 12.8001 15.564 12.8001C15.168 12.8001 14.524 12.9481 13.98 13.5441C13.434 14.1381 11.9 15.5761 11.9 18.5021C11.9 21.4261 14.028 24.2521 14.326 24.6501C14.624 25.0481 18.516 31.0501 24.478 33.6241C25.898 34.2361 27.004 34.6021 27.866 34.8741C29.29 35.3281 30.586 35.2641 31.61 35.1101C32.75 34.9401 35.126 33.6721 35.622 32.2841C36.118 30.8961 36.116 29.7061 35.968 29.4581C35.82 29.2101 35.424 29.0621 34.828 28.7641M23.984 43.5701H23.976C20.4349 43.5707 16.9587 42.6188 13.912 40.8141L13.192 40.3861L5.708 42.3501L7.706 35.0541L7.236 34.3061C5.25618 31.1548 4.20848 27.5076 4.214 23.7861C4.218 12.8861 13.086 4.01807 23.992 4.01807C26.5896 4.01017 29.1628 4.51868 31.5621 5.51404C33.9613 6.5094 36.1389 7.97174 37.968 9.81607C39.809 11.6487 41.2681 13.8282 42.2609 16.2286C43.2538 18.629 43.7606 21.2025 43.752 23.8001C43.748 34.7001 34.88 43.5701 23.984 43.5701ZM40.808 6.97607C38.6043 4.7586 35.9826 3.00026 33.0948 1.80283C30.2069 0.605392 27.1103 -0.0073506 23.984 6.65396e-05C10.876 6.65396e-05 0.204 10.6701 0.2 23.7841C0.193548 27.9576 1.2884 32.059 3.374 35.6741L0 48.0001L12.608 44.6921C16.0963 46.5908 20.0044 47.5864 23.976 47.5881H23.986C37.094 47.5881 47.766 36.9181 47.77 23.8021C47.7798 20.6766 47.1697 17.5802 45.975 14.6921C44.7803 11.8039 43.0248 9.18134 40.81 6.97607" fill="#D2FD68"/>
    </g>
  </g>
  <defs>
    <clipPath id="clip0_1825_10366">
      <rect width="48" height="48" fill="white"/>
    </clipPath>
  </defs>
</svg>