<svg width="17" height="13" viewBox="0 0 17 13" fill="none" xmlns="http://www.w3.org/2000/svg">
<path d="M6.18896 12.0366C5.95296 12.0366 5.74951 12.0041 5.57861 11.939C5.40771 11.8657 5.24089 11.7477 5.07812 11.585L0.158691 6.68994C0.101725 6.63298 0.0610352 6.57601 0.0366211 6.51904C0.012207 6.45394 0 6.37663 0 6.28711C0 6.12435 0.0528971 5.99414 0.158691 5.89648L5.05371 1.02588C5.22461 0.863118 5.39551 0.745117 5.56641 0.671875C5.7373 0.598633 5.93669 0.562012 6.16455 0.562012H8.03223C8.30078 0.562012 8.43506 0.61084 8.43506 0.708496C8.43506 0.757324 8.36589 0.863118 8.22754 1.02588L4.06494 5.12744H15.6006C15.8366 5.12744 16.0116 5.20475 16.1255 5.35938C16.2476 5.50586 16.3086 5.74186 16.3086 6.06738V6.48242C16.3086 6.81608 16.2476 7.06022 16.1255 7.21484C16.0116 7.36133 15.8366 7.43457 15.6006 7.43457H4.04053L8.25195 11.585C8.3903 11.7233 8.45947 11.825 8.45947 11.8901C8.45947 11.9878 8.3252 12.0366 8.05664 12.0366H6.18896Z" fill="#141414"/>
</svg>
