<svg xmlns="http://www.w3.org/2000/svg" width="201" height="178" viewBox="0 0 201 178" fill="none">
<path fill-rule="evenodd" clip-rule="evenodd" d="M52.8773 57.5797C-5.11693 79.802 -25.4658 140.408 -10.2041 180.813C5.05753 220.207 45.7552 254.55 94.5925 237.379C143.43 220.207 177.005 155.56 159.709 106.065C153.604 89.9031 145.465 77.7818 134.273 68.6908C115.959 53.5392 101.715 57.5797 91.5402 56.5696C82.3832 56.5696 70.1738 50.5089 52.8773 57.5797ZM130.203 37.3775C127.151 34.3472 124.098 19.1956 111.889 12.1249C98.6623 5.05415 71.1913 -10.0974 13.197 10.1047C-37.6751 28.2866 -103.809 84.8525 -78.3728 180.813C-54.9716 268.692 44.7378 302.025 106.802 280.813C168.866 259.601 219.738 176.772 194.302 105.055C177.005 57.5797 133.255 40.4079 130.203 37.3775Z" fill="#376F5D"/>
</svg>