<svg width="196" height="146" viewBox="0 0 196 146" fill="none" xmlns="http://www.w3.org/2000/svg">
<path fill-rule="evenodd" clip-rule="evenodd" d="M137.358 -84.2197C79.1598 -61.92 58.7396 -1.1024 74.0548 39.4426C89.37 78.974 130.21 113.437 179.219 96.2057C228.228 78.974 261.921 14.102 244.564 -35.5657C238.438 -51.7837 230.27 -63.9472 219.039 -73.0698C200.66 -88.2742 186.366 -84.2197 176.156 -85.2333C166.967 -85.2333 154.715 -91.3151 137.358 -84.2197ZM214.955 -104.492C211.891 -107.533 208.828 -122.737 196.576 -129.833C183.303 -136.928 155.736 -152.133 97.5381 -131.86C46.4874 -113.615 -19.8784 -56.8518 5.64692 39.4426C29.1302 127.628 129.189 161.078 191.471 139.792C253.753 118.505 304.804 35.3881 279.278 -36.5793C261.921 -84.2197 218.018 -101.451 214.955 -104.492Z" fill="#E9F6DF"/>
</svg>
