<svg width="38" height="38" viewBox="0 0 38 38" fill="none" xmlns="http://www.w3.org/2000/svg">
<circle cx="19" cy="19" r="19" fill="#36845B"/>
<path fill-rule="evenodd" clip-rule="evenodd" d="M10.8285 18.5445C10.8285 14.8359 13.8351 11.8291 17.5439 11.8291C21.2524 11.8291 24.2586 14.8357 24.2586 18.5445C24.2586 22.253 21.2523 25.2592 17.5439 25.2592C13.8353 25.2592 10.8285 22.2529 10.8285 18.5445ZM17.5439 9.70862C12.6641 9.70862 8.70801 13.6645 8.70801 18.5445C8.70801 23.424 12.6638 27.3797 17.5439 27.3797C19.6014 27.3797 21.495 26.6764 22.9968 25.4968L26.6897 29.1897C27.1039 29.6036 27.7751 29.6036 28.1892 29.1897C28.6032 28.7756 28.6032 28.1044 28.1892 27.6902L24.4963 23.9973C25.6759 22.4955 26.3792 20.6019 26.3792 18.5443C26.3792 13.6646 22.4234 9.7085 17.544 9.7085L17.5439 9.70862Z" fill="white"/>
</svg>
