<svg width="27" height="26" viewBox="0 0 27 26" fill="none" xmlns="http://www.w3.org/2000/svg">
<path fill-rule="evenodd" clip-rule="evenodd" d="M13.3289 0C6.24602 0 0.5 5.74602 0.5 12.8289C0.5 19.9119 6.24602 25.6579 13.3289 25.6579C20.4119 25.6579 26.1579 19.9119 26.1579 12.8289C26.1579 5.74602 20.4119 0 13.3289 0ZM9.65576 6.14438H17.002C18.663 6.14438 20.0134 7.4948 20.0134 9.15581V16.5021C20.0134 18.1631 18.663 19.5135 17.002 19.5135H9.65576C7.99475 19.5135 6.64433 18.1631 6.64433 16.5021V9.15581C6.64433 7.4948 7.99475 6.14438 9.65576 6.14438ZM9.31811 12.8289C9.31811 15.0369 11.1209 16.8397 13.3288 16.8397C15.5368 16.8397 17.3396 15.0369 17.3396 12.8289C17.3396 10.621 15.5368 8.81821 13.3288 8.81821C11.1209 8.81821 9.31811 10.621 9.31811 12.8289ZM17.5896 9.48665C17.0832 9.48665 16.6713 9.07477 16.6713 8.56837C16.6713 8.06196 17.0832 7.65008 17.5896 7.65008C18.096 7.65008 18.5079 8.06196 18.5079 8.56837C18.5079 9.07477 18.096 9.48665 17.5896 9.48665ZM10.6552 12.829C10.6552 11.357 11.857 10.1551 13.329 10.1551C14.8009 10.1551 16.0028 11.357 16.0028 12.829C16.0028 14.3009 14.8009 15.5028 13.329 15.5028C11.857 15.5028 10.6552 14.3009 10.6552 12.829ZM17.0021 20.8437C19.3991 20.8437 21.3437 18.8991 21.3437 16.5021V9.15584C21.3437 6.75885 19.3991 4.8075 17.0021 4.8075H9.65584C7.25885 4.8075 5.3075 6.75885 5.3075 9.15584V16.5021C5.3075 18.8991 7.25885 20.8437 9.65584 20.8437H17.0021Z" fill="white"/>
</svg>
