<svg width="42" height="42" viewBox="0 0 42 42" fill="none" xmlns="http://www.w3.org/2000/svg">
<path fill-rule="evenodd" clip-rule="evenodd" d="M20.5263 0C9.19363 0 0 9.19363 0 20.5263C0 31.859 9.19363 41.0526 20.5263 41.0526C31.859 41.0526 41.0526 31.859 41.0526 20.5263C41.0526 9.19363 31.859 0 20.5263 0ZM14.6492 9.83101H26.4032C29.0609 9.83101 31.2215 11.9917 31.2215 14.6493V26.4033C31.2215 29.0609 29.0609 31.2216 26.4032 31.2216H14.6492C11.9916 31.2216 9.83093 29.0609 9.83093 26.4033V14.6493C9.83093 11.9917 11.9916 9.83101 14.6492 9.83101ZM14.109 20.5263C14.109 24.059 16.9935 26.9435 20.5262 26.9435C24.0588 26.9435 26.9433 24.059 26.9433 20.5263C26.9433 16.9936 24.0588 14.1091 20.5262 14.1091C16.9935 14.1091 14.109 16.9936 14.109 20.5263ZM27.3433 15.1786C26.5331 15.1786 25.8741 14.5196 25.8741 13.7094C25.8741 12.8991 26.5331 12.2401 27.3433 12.2401C28.1536 12.2401 28.8126 12.8991 28.8126 13.7094C28.8126 14.5196 28.1536 15.1786 27.3433 15.1786ZM16.2483 20.5264C16.2483 18.1712 18.1713 16.2482 20.5264 16.2482C22.8815 16.2482 24.8045 18.1712 24.8045 20.5264C24.8045 22.8815 22.8815 24.8045 20.5264 24.8045C18.1713 24.8045 16.2483 22.8815 16.2483 20.5264ZM26.4034 33.3499C30.2385 33.3499 33.3499 30.2385 33.3499 26.4034V14.6493C33.3499 10.8142 30.2385 7.692 26.4034 7.692H14.6493C10.8142 7.692 7.692 10.8142 7.692 14.6493V26.4034C7.692 30.2385 10.8142 33.3499 14.6493 33.3499H26.4034Z" fill="#155BCC"/>
</svg>
