<svg xmlns="http://www.w3.org/2000/svg" width="50" height="50" viewBox="0 0 50 50" fill="none">
<path d="M46.9849 3.6351C45.4774 2.13092 37.6884 0 25.3769 0C12.6884 0 5.02513 2.00557 3.64322 3.3844C2.13568 4.88858 0 13.7883 0 24.9443C0 36.7271 2.26131 44.7494 3.51759 46.1282C4.8995 47.6324 11.4322 49.8886 25.2513 49.8886C39.8241 49.8886 45.4774 47.7577 46.8593 46.2535C48.3668 44.7494 50 36.8524 50 24.9443C50 13.0362 48.3668 5.01393 46.9849 3.6351Z" fill="#00ACED"/>
<rect x="10" y="10" width="30" height="30" rx="2" fill="white"/>
<path d="M26.4965 23.7976L32.3474 17.1429H30.9614L25.8789 22.9199L21.8225 17.1429H17.1428L23.2782 25.8796L17.1428 32.8572H18.5288L23.8926 26.7552L28.1774 32.8572H32.8571M19.0291 18.1656H21.1583L30.9604 31.8847H28.8306" fill="#00ACED"/>
</svg>