<svg xmlns="http://www.w3.org/2000/svg" width="50" height="50" viewBox="0 0 50 50" fill="none">
<path d="M46.9849 3.74649C45.4774 2.24231 37.6884 0.111389 25.3769 0.111389C12.6884 0.111389 5.02513 2.11696 3.64322 3.49579C2.13568 4.99997 0 13.8997 0 25.0557C0 36.8384 2.26131 44.8607 3.51759 46.2396C4.8995 47.7438 11.4322 50 25.2513 50C39.8241 50 45.4774 47.8691 46.8593 46.3649C48.3668 44.8607 50 36.9638 50 25.0557C50 13.1476 48.3668 5.12532 46.9849 3.74649Z" fill="#3B5998"/>
<path d="M27.143 27.1471H30.2042L31.4287 21.7185H27.143V19.0042C27.143 17.6063 27.143 16.2899 29.5919 16.2899H31.4287V11.7299C31.0295 11.6716 29.5221 11.5399 27.9303 11.5399C24.6058 11.5399 22.245 13.7887 22.245 17.9185V21.7185H18.5715V27.1471H22.245V38.6828H27.143V27.1471Z" fill="white"/>
</svg>