<svg xmlns="http://www.w3.org/2000/svg" width="50" height="50" viewBox="0 0 50 50" fill="none">
<path d="M46.9849 3.74649C45.4774 2.24231 37.6884 0.111389 25.3769 0.111389C12.6884 0.111389 5.02513 2.11696 3.64322 3.49579C2.13568 4.99997 0 13.8997 0 25.0557C0 36.8384 2.26131 44.8607 3.51759 46.2396C4.8995 47.7438 11.4322 50 25.2513 50C39.8241 50 45.4774 47.8691 46.8593 46.3649C48.3668 44.8607 50 36.9638 50 25.0557C50 13.1476 48.3668 5.12532 46.9849 3.74649Z" fill="#007BB6"/>
<path d="M19.402 34.5085H14.6632V20.2017H19.402V34.5085ZM17.03 18.2501C15.5147 18.2501 14.2856 17.0734 14.2856 15.6528C14.2856 14.9704 14.5748 14.316 15.0895 13.8335C15.6041 13.351 16.3022 13.0799 17.03 13.0799C17.7579 13.0799 18.4559 13.351 18.9706 13.8335C19.4853 14.316 19.7744 14.9704 19.7744 15.6528C19.7744 17.0734 18.5448 18.2501 17.03 18.2501ZM37.1377 34.5085H32.4091V27.544C32.4091 25.8842 32.3734 23.7557 29.9453 23.7557C27.4816 23.7557 27.104 25.559 27.104 27.4244V34.5085H22.3703V20.2017H26.9152V22.1533H26.9816C27.6142 21.0292 29.1596 19.843 31.4652 19.843C36.2612 19.843 37.1428 22.8038 37.1428 26.6496V34.5085H37.1377Z" fill="white"/>
</svg>