<svg width="26" height="26" viewBox="0 0 26 26" fill="none" xmlns="http://www.w3.org/2000/svg">
<path fill-rule="evenodd" clip-rule="evenodd" d="M0 12.8289C0 5.74602 5.74399 0 12.8289 0C19.9139 0 25.6579 5.74602 25.6579 12.8289C25.6579 19.9119 19.9139 25.6579 12.8289 25.6579C5.74399 25.6579 0 19.9119 0 12.8289ZM19.4156 10.1821C19.4156 10.0404 19.4116 9.89856 19.4055 9.75677C20.0483 9.29763 20.6067 8.71695 21.0476 8.05524C20.4575 8.31858 19.8235 8.49413 19.1577 8.57515C19.837 8.17003 20.3582 7.52183 20.6047 6.75209C19.9686 7.13021 19.2644 7.40705 18.5156 7.54884C17.9146 6.91414 17.0605 6.51577 16.1139 6.51577C14.2969 6.51577 12.8236 7.98772 12.8236 9.80403C12.8236 10.0606 12.8533 10.3104 12.9093 10.5535C10.1747 10.4185 7.75006 9.10857 6.12754 7.11671C5.84463 7.60286 5.6819 8.16328 5.6819 8.77096C5.6819 9.91207 6.26325 10.9181 7.14643 11.5056C6.60694 11.4921 6.09918 11.3435 5.65624 11.0937C5.65489 11.1072 5.65489 11.1274 5.65489 11.1409V11.1409C5.65489 12.7344 6.78924 14.0646 8.29428 14.3617C8.01812 14.436 7.72778 14.4765 7.42799 14.4765C7.21597 14.4765 7.00936 14.4562 6.80882 14.4157C7.22745 15.7256 8.44215 16.6776 9.88237 16.7047C8.75612 17.5892 7.33751 18.1091 5.79601 18.1091C5.53065 18.1091 5.26867 18.0956 5.01142 18.0686C6.46717 19.0004 8.19705 19.5473 10.0545 19.5473C16.1058 19.5473 19.4156 14.5305 19.4156 10.1821Z" fill="#EC6B1C"/>
</svg>
