<svg width="26" height="26" viewBox="0 0 26 26" fill="none" xmlns="http://www.w3.org/2000/svg">
<path fill-rule="evenodd" clip-rule="evenodd" d="M12.8289 0C5.74602 0 0 5.74602 0 12.8289C0 19.9119 5.74602 25.6579 12.8289 25.6579C19.9119 25.6579 25.6579 19.9119 25.6579 12.8289C25.6579 5.74602 19.9119 0 12.8289 0ZM9.15576 6.14438H16.502C18.163 6.14438 19.5134 7.4948 19.5134 9.15581V16.5021C19.5134 18.1631 18.163 19.5135 16.502 19.5135H9.15576C7.49475 19.5135 6.14433 18.1631 6.14433 16.5021V9.15581C6.14433 7.4948 7.49475 6.14438 9.15576 6.14438ZM8.81811 12.8289C8.81811 15.0369 10.6209 16.8397 12.8288 16.8397C15.0368 16.8397 16.8396 15.0369 16.8396 12.8289C16.8396 10.621 15.0368 8.81821 12.8288 8.81821C10.6209 8.81821 8.81811 10.621 8.81811 12.8289ZM17.0896 9.48665C16.5832 9.48665 16.1713 9.07477 16.1713 8.56837C16.1713 8.06196 16.5832 7.65008 17.0896 7.65008C17.596 7.65008 18.0079 8.06196 18.0079 8.56837C18.0079 9.07477 17.596 9.48665 17.0896 9.48665ZM10.1552 12.829C10.1552 11.357 11.357 10.1551 12.829 10.1551C14.3009 10.1551 15.5028 11.357 15.5028 12.829C15.5028 14.3009 14.3009 15.5028 12.829 15.5028C11.357 15.5028 10.1552 14.3009 10.1552 12.829ZM16.5021 20.8437C18.8991 20.8437 20.8437 18.8991 20.8437 16.5021V9.15584C20.8437 6.75885 18.8991 4.8075 16.5021 4.8075H9.15584C6.75885 4.8075 4.8075 6.75885 4.8075 9.15584V16.5021C4.8075 18.8991 6.75885 20.8437 9.15584 20.8437H16.5021Z" fill="#EC6B1C"/>
</svg>
