<svg width="311" height="102" viewBox="0 0 311 102" fill="none" xmlns="http://www.w3.org/2000/svg">
<path d="M156.792 102C69.7877 102 28.6582 87.7729 19.9577 78.2882C13.9526 71.6872 4.30001 40.9392 0 -6H311C307.741 41.294 300.06 71.8601 292.836 79.0785C284.136 88.5633 248.543 102 156.792 102Z" fill="white"/>
<path d="M73.8045 27.389C72.399 25.9867 65.1373 24 53.6591 24C41.8296 24 34.685 25.8698 33.3966 27.1553C31.9911 28.5577 30 36.855 30 47.2558C30 58.241 32.1082 65.7202 33.2795 67.0057C34.5678 68.4081 40.6583 70.5116 53.542 70.5116C67.1284 70.5116 72.399 68.525 73.6873 67.1226C75.0928 65.7202 76.6155 58.3578 76.6155 47.2558C76.6155 36.1538 75.0928 28.6745 73.8045 27.389Z" fill="#69BE28"/>
<path fill-rule="evenodd" clip-rule="evenodd" d="M52.7221 37.2056C46.046 39.7766 43.7035 46.7884 45.4604 51.4629C47.2173 56.0206 51.9022 59.9939 57.5242 58.0073C63.1462 56.0206 67.0113 48.5413 65.0201 42.815C64.3174 40.9452 63.3804 39.5428 62.092 38.4911C59.9838 36.7381 58.3441 37.2056 57.1728 37.0887C56.1187 37.0887 54.7132 36.3875 52.7221 37.2056ZM61.6235 34.8683C61.2722 34.5177 60.9208 32.7648 59.5153 31.9467C57.9927 31.1287 54.8303 29.3757 48.1543 31.713C42.298 33.8165 34.685 40.3609 37.6131 51.4629C40.3069 61.63 51.7851 65.4865 58.9297 63.0324C66.0743 60.5783 71.9305 50.9955 69.0024 42.6982C67.0113 37.2056 61.9749 35.2189 61.6235 34.8683Z" fill="white"/>
<path d="M105.493 33.7705C103.458 33.7705 102.44 34.109 101.761 34.4476C101.422 34.5604 101.196 34.6733 101.083 34.6733C100.856 34.6733 100.63 34.5604 100.178 34.4476C99.273 34.2219 98.0289 33.7705 95.9932 33.7705C94.2968 33.7705 93.2789 34.109 92.6003 34.4476C92.261 34.5604 92.0348 34.6733 91.6956 34.6733C91.6956 34.6733 91.6956 34.6733 91.6956 34.5604L91.5825 34.3347C91.4694 34.2219 91.3563 33.9962 91.017 33.9962C90.2253 33.9962 88.7551 34.4476 88.4158 34.8989C87.9634 35.4632 87.7372 38.0586 87.7372 41.8953V47.1989C87.7372 48.3274 87.7372 48.7787 87.9634 49.0044C88.3027 49.2301 90.1122 49.2301 90.1122 49.2301C90.4515 49.2301 91.9217 49.2301 92.261 48.8916C92.4872 48.7787 92.6003 48.3274 92.6003 47.0861V39.8641C92.6003 38.9613 92.7134 38.2843 92.7134 38.0586C93.0527 37.9457 94.0706 37.72 94.9753 37.72C96.1063 37.72 97.0111 37.8329 97.2372 37.9457C97.2372 38.0586 97.3503 38.2843 97.3503 38.7356V47.3118C97.3503 48.4402 97.4634 48.7787 97.6896 49.0044C98.0289 49.2301 99.8384 49.2301 99.8384 49.2301C100.178 49.2301 101.648 49.2301 101.987 48.8916C102.213 48.7787 102.213 48.4402 102.213 47.1989V38.6228C102.213 38.1714 102.213 37.9457 102.213 37.9457C102.553 37.8329 103.684 37.72 104.588 37.72C105.38 37.72 106.059 37.8329 106.285 37.9457C106.285 38.1714 106.398 38.8485 106.398 40.4283V47.3118C106.398 48.4402 106.511 48.7787 106.737 49.0044C107.077 49.2301 108.886 49.2301 108.886 49.2301C109.225 49.2301 110.696 49.2301 111.035 48.8916C111.261 48.7787 111.261 48.4402 111.261 47.1989V41.7824C111.261 38.3971 110.809 35.3503 110.356 34.6733C109.904 34.109 107.868 33.7705 105.493 33.7705Z" fill="#295F4E"/>
<path d="M118.612 28.4667C118.386 28.241 117.255 28.1282 116.464 28.1282C115.785 28.1282 114.654 28.241 114.315 28.4667C113.975 28.8052 113.975 29.9337 113.975 30.3851C113.975 30.8364 114.089 32.0777 114.315 32.3034C114.541 32.5291 116.011 32.6419 116.464 32.6419C116.916 32.6419 118.386 32.5291 118.612 32.3034C118.725 32.0777 118.952 31.2878 118.952 30.3851C118.952 29.5951 118.839 28.8052 118.612 28.4667Z" fill="#295F4E"/>
<path d="M118.612 34.3346C118.273 34.1089 116.464 34.1089 116.464 34.1089C116.124 34.1089 114.654 34.1089 114.315 34.4474C114.089 34.5603 114.089 34.8988 114.089 36.1401V47.4245C114.089 48.5529 114.202 48.8914 114.428 49.1171C114.767 49.3428 116.577 49.3428 116.577 49.3428C117.029 49.3428 118.499 49.3428 118.725 49.1171C118.952 49.0043 119.065 48.6657 119.065 47.4245V36.1401C118.952 34.7859 118.839 34.4474 118.612 34.3346Z" fill="#295F4E"/>
<path d="M128.112 45.5063C127.321 45.2806 126.981 45.0549 126.868 45.0549C126.755 44.8292 126.642 44.0393 126.642 43.0237V30.2724C126.642 29.1439 126.529 28.8054 126.303 28.5797C125.964 28.354 124.267 28.354 124.267 28.354C124.267 28.354 122.571 28.354 122.231 28.5797C122.005 28.6925 122.005 29.0311 122.005 30.2724V43.0237C122.005 46.5219 122.571 47.9888 122.91 48.3274C123.475 49.0044 126.755 49.5686 127.773 49.5686C127.886 49.5686 128.112 49.5686 128.225 49.4558C128.565 49.343 129.017 48.7787 129.243 47.9888C129.47 47.4246 129.583 46.5219 129.47 46.1833C129.356 45.9576 128.904 45.732 128.112 45.5063Z" fill="#295F4E"/>
<path d="M135.69 34.3346C135.351 34.1089 133.541 34.1089 133.541 34.1089C133.202 34.1089 131.731 34.1089 131.392 34.4474C131.166 34.5603 131.166 34.8988 131.166 36.1401V47.4245C131.166 48.5529 131.279 48.8914 131.505 49.1171C131.845 49.3428 133.654 49.3428 133.654 49.3428C134.106 49.3428 135.577 49.3428 135.803 49.1171C136.029 49.0043 136.142 48.6657 136.142 47.4245V36.1401C135.916 34.7859 135.916 34.4474 135.69 34.3346Z" fill="#295F4E"/>
<path d="M135.69 28.4667C135.464 28.241 134.333 28.1282 133.541 28.1282C132.862 28.1282 131.731 28.241 131.392 28.4667C131.053 28.8052 131.053 29.9337 131.053 30.3851C131.053 30.8364 131.166 32.0777 131.392 32.3034C131.618 32.5291 133.089 32.6419 133.541 32.6419C133.993 32.6419 135.464 32.5291 135.69 32.3034C135.803 32.0777 136.029 31.2878 136.029 30.3851C136.029 29.5951 135.916 28.8052 135.69 28.4667Z" fill="#295F4E"/>
<path d="M143.154 43.0238C143.946 43.1366 145.19 43.2494 146.095 43.2494C146.208 43.2494 146.321 43.2494 146.321 43.2494C147.791 43.2494 150.732 42.9109 151.297 42.3467C151.749 41.8953 151.976 39.977 151.976 38.51C151.976 36.7045 151.41 35.0118 151.071 34.6733C150.505 33.9962 148.696 33.6577 145.529 33.6577C143.154 33.6577 140.214 33.7706 139.422 34.5605C138.97 35.0118 138.404 37.3816 138.404 40.9926C138.404 41.2183 138.404 47.0861 139.535 48.2146C140.327 49.0045 143.493 49.1173 145.077 49.1173C148.809 49.1173 151.184 48.3274 151.41 47.876C151.523 47.6504 151.297 46.7476 151.184 46.2962C151.184 46.1834 150.845 44.9421 150.505 44.8293H150.392C150.279 44.8293 150.166 44.8293 149.827 44.9421C149.035 45.0549 147.678 45.3935 145.982 45.3935C144.737 45.3935 143.38 45.1678 143.154 45.0549C143.041 44.9421 142.928 43.9265 142.928 43.0238V42.9109C143.041 43.0238 143.041 43.0238 143.154 43.0238ZM143.154 37.6073C143.267 37.4944 144.172 37.3816 145.642 37.2687C147.112 37.2687 147.904 37.4944 147.904 37.4944C147.904 37.6073 148.017 37.9458 148.017 38.6228C148.017 39.1871 147.904 39.6384 147.904 39.7513C147.678 39.8641 146.773 39.977 145.642 39.977C144.737 39.977 143.38 39.8641 143.041 39.7513C143.041 39.6384 142.928 39.2999 142.928 38.7357C142.928 37.8329 143.154 37.6073 143.154 37.6073Z" fill="#295F4E"/>
<path d="M168.035 34.3346C167.696 33.9961 166.113 33.9961 165.886 33.9961C165.886 33.9961 164.077 33.9961 163.738 34.3346C163.511 34.4475 163.511 34.786 163.511 36.0273V43.0236C163.511 44.0392 163.398 44.8291 163.398 45.1676C163.059 45.2805 162.041 45.5062 161.023 45.5062C160.005 45.5062 158.874 45.2805 158.648 45.2805C158.535 45.0548 158.535 44.3777 158.535 43.1364V36.0273C158.535 34.786 158.422 34.5603 158.196 34.3346C157.857 33.9961 156.273 33.9961 156.047 33.9961C156.047 33.9961 154.237 33.9961 153.898 34.3346C153.672 34.4475 153.672 34.786 153.672 36.0273V41.5566C153.672 44.2649 154.124 47.8759 154.577 48.4401C155.142 49.0043 157.517 49.3429 159.666 49.3429C161.476 49.3429 162.607 49.0043 163.398 48.7786C163.738 48.6658 164.077 48.5529 164.303 48.5529H164.416C164.416 48.5529 164.416 48.553 164.529 48.6658L164.642 48.7786C164.755 49.1172 165.095 49.1172 165.208 49.1172C165.999 49.1172 167.47 48.6658 167.922 48.1016C168.374 47.4245 168.601 44.7163 168.601 41.2181V35.8016C168.374 34.786 168.261 34.4475 168.035 34.3346Z" fill="#295F4E"/>
<path d="M182.964 27.9026C182.964 27.9026 181.154 27.9026 180.815 28.2411C180.702 28.354 180.589 28.5797 180.589 29.9338V34.4475C180.589 34.6732 180.589 34.6732 180.476 34.6732C180.363 34.6732 180.25 34.5604 180.023 34.4475C179.458 34.2218 178.44 33.6576 176.404 33.6576C173.69 33.6576 171.994 34.109 171.541 34.6732C171.089 35.2374 170.523 38.1714 170.523 41.4438C170.523 44.4906 170.976 47.5374 171.541 48.1016C171.994 48.553 173.803 49.1172 176.857 49.1172C179.119 49.1172 180.023 48.6659 180.702 48.3273C180.928 48.2145 181.041 48.1016 181.267 48.1016C181.267 48.1016 181.267 48.1016 181.267 48.2145L181.494 48.553C181.72 48.8915 182.059 48.8915 182.851 48.8915C184.208 48.8915 184.66 48.7787 184.773 48.553C184.886 48.4402 185.226 47.9888 185.226 46.5218V29.5952C185.226 28.354 185.113 28.1283 184.886 27.9026C184.66 27.9026 182.964 27.9026 182.964 27.9026ZM180.702 41.4438C180.702 43.2494 180.589 44.6035 180.476 44.942C180.136 45.0549 179.119 45.3934 177.648 45.3934C175.952 45.3934 175.273 45.0548 175.16 45.0548C175.047 44.8292 174.708 43.475 174.708 41.5567C174.708 39.864 174.934 38.2842 175.16 38.0585C175.16 38.0585 175.5 37.72 177.648 37.72C178.779 37.72 180.25 37.9457 180.476 38.0585C180.589 38.3971 180.702 39.6383 180.702 41.4438Z" fill="#295F4E"/>
<path d="M192.011 43.0238C192.803 43.1366 194.047 43.2494 194.952 43.2494C195.065 43.2494 195.178 43.2494 195.178 43.2494C196.648 43.2494 199.589 42.9109 200.154 42.3467C200.607 41.8953 200.833 39.977 200.833 38.51C200.833 36.7045 200.267 35.0118 199.928 34.6733C199.363 33.9962 197.553 33.6577 194.387 33.6577C192.011 33.6577 189.071 33.7706 188.279 34.5605C187.827 35.0118 187.261 37.3816 187.261 40.9926C187.261 41.2183 187.261 47.0861 188.392 48.2146C189.184 49.0045 192.351 49.1173 193.934 49.1173C197.666 49.1173 200.041 48.3274 200.267 47.876C200.381 47.6504 200.154 46.7476 200.041 46.2962C200.041 46.1834 199.702 44.9421 199.363 44.8293H199.25C199.137 44.8293 199.023 44.8293 198.684 44.9421C197.892 45.0549 196.535 45.3935 194.839 45.3935C193.595 45.3935 192.238 45.1678 192.011 45.0549C191.898 44.9421 191.785 43.9265 191.785 43.0238V42.9109C191.898 43.0238 191.898 43.0238 192.011 43.0238ZM192.125 37.6073C192.238 37.4944 193.142 37.3816 194.613 37.2687C196.083 37.2687 196.875 37.4944 196.875 37.4944C196.875 37.6073 196.988 37.9458 196.988 38.6228C196.988 39.1871 196.875 39.6384 196.875 39.7513C196.648 39.8641 195.744 39.977 194.5 39.977C193.595 39.977 192.238 39.8641 191.898 39.7513C191.898 39.6384 191.785 39.2999 191.785 38.7357C191.785 37.8329 192.011 37.6073 192.125 37.6073Z" fill="#295F4E"/>
<path d="M213.273 28.9181C213.047 28.5796 211.464 28.0154 209.089 28.0154C207.506 28.0154 205.696 28.2411 205.244 28.6924C204.678 29.1438 204.452 31.0622 204.452 32.642V33.319C204.452 33.4319 204.452 33.7704 204.452 33.9961C204.339 33.9961 204.226 33.9961 204.226 33.9961H203.887C203.095 33.9961 202.642 34.1089 202.529 34.2218C202.303 34.4475 202.303 34.8989 202.303 35.6888C202.303 36.1401 202.416 37.0429 202.529 37.2686C202.756 37.4943 203.095 37.4943 203.773 37.4943H204.113C204.226 37.4943 204.339 37.4943 204.452 37.4943C204.452 37.6071 204.452 37.72 204.452 37.8328V47.1988C204.452 48.3273 204.565 48.6658 204.791 48.8915C205.131 49.1172 206.488 49.1172 206.94 49.1172C206.94 49.1172 208.637 49.1172 208.976 48.7787C209.202 48.6658 209.202 48.3273 209.202 47.086V37.7199C209.202 37.6071 209.202 37.4943 209.202 37.3814C209.315 37.3814 209.428 37.3814 209.541 37.3814H210.785C211.916 37.3814 212.143 37.2686 212.369 37.1557C212.595 36.93 212.595 36.0273 212.595 35.5759C212.595 34.4475 212.369 34.2218 212.369 34.109C212.256 33.9961 212.143 33.8833 210.898 33.8833H209.428C209.315 33.8833 209.202 33.8833 209.089 33.8833C209.089 33.8833 209.089 33.8833 209.089 33.7704V32.5291C209.089 32.0778 209.089 31.8521 209.202 31.7392C209.315 31.7392 209.541 31.6264 210.22 31.6264C210.898 31.6264 211.577 31.7392 212.029 31.7392C212.256 31.7392 212.369 31.7392 212.482 31.7392H212.595H212.708C212.821 31.6264 213.16 31.4007 213.387 30.3851V30.2723C213.387 29.3695 213.387 29.031 213.273 28.9181Z" fill="#295F4E"/>
<path d="M217.797 43.0238C218.589 43.1366 219.833 43.2494 220.738 43.2494C220.851 43.2494 220.964 43.2494 220.964 43.2494C222.434 43.2494 225.375 42.9109 225.94 42.3467C226.393 41.8953 226.619 39.977 226.619 38.51C226.619 36.7045 226.053 35.0118 225.714 34.6733C225.149 33.9962 223.339 33.6577 220.172 33.6577C217.797 33.6577 214.857 33.7706 214.065 34.5605C213.613 35.0118 213.047 37.3816 213.047 40.9926C213.047 41.2183 213.047 47.0861 214.178 48.2146C214.97 49.0045 218.137 49.1173 219.72 49.1173C223.452 49.1173 225.827 48.3274 226.053 47.876C226.166 47.6504 225.94 46.7476 225.827 46.2962C225.827 46.1834 225.488 44.9421 225.149 44.8293H225.035C224.922 44.8293 224.809 44.8293 224.47 44.9421C223.678 45.0549 222.321 45.3935 220.625 45.3935C219.381 45.3935 218.024 45.1678 217.797 45.0549C217.684 44.9421 217.571 43.9265 217.571 43.0238V42.9109C217.684 43.0238 217.797 43.0238 217.797 43.0238ZM217.91 37.6073C218.024 37.4944 218.928 37.3816 220.399 37.2687C221.869 37.2687 222.66 37.4944 222.66 37.4944C222.66 37.6073 222.774 37.9458 222.774 38.6228C222.774 39.1871 222.66 39.6384 222.66 39.7513C222.434 39.8641 221.529 39.977 220.285 39.977C219.381 39.977 218.024 39.8641 217.684 39.7513C217.684 39.6384 217.571 39.2999 217.571 38.7357C217.684 37.8329 217.91 37.6073 217.91 37.6073Z" fill="#295F4E"/>
<path d="M237.024 33.7705C234.875 33.7705 233.857 34.2219 233.178 34.4476C232.839 34.5604 232.726 34.6733 232.5 34.6733C232.5 34.6733 232.5 34.6733 232.387 34.5604L232.274 34.3347C232.16 34.2219 232.047 33.9962 231.708 33.9962C231.143 33.9962 229.446 34.3347 228.994 34.8989C228.654 35.576 228.428 37.4944 228.315 40.0898C228.315 40.5411 228.315 41.1054 228.315 41.6696V47.1989C228.315 48.3274 228.428 48.6659 228.654 48.8916C228.994 49.1173 230.803 49.1173 230.803 49.1173C231.143 49.1173 232.613 49.1173 232.952 48.7787C233.065 48.6659 233.178 48.4402 233.178 47.0861V39.8641C233.178 38.8485 233.291 38.1714 233.291 37.9457C233.631 37.8329 234.649 37.6072 235.553 37.6072C236.571 37.6072 237.702 37.8329 237.928 37.8329C238.041 38.0586 238.041 38.7356 238.041 39.8641V47.0861C238.041 48.2145 238.155 48.5531 238.381 48.7787C238.72 49.0044 240.53 49.0044 240.53 49.0044C240.982 49.0044 242.452 49.0044 242.678 48.7787C242.905 48.6659 243.018 48.3274 243.018 47.0861V41.5567C243.018 38.8485 242.565 35.2375 242 34.6733C241.547 34.2219 239.285 33.7705 237.024 33.7705Z" fill="#295F4E"/>
<path d="M252.744 39.7512H252.631C252.292 39.7512 251.952 39.6384 251.726 39.6384C250.821 39.5255 249.577 39.2999 249.351 39.187C249.351 39.0742 249.238 38.9613 249.238 38.51C249.238 38.0586 249.351 37.9457 249.238 37.9457C249.351 37.8329 250.256 37.72 251.387 37.72H251.5C252.744 37.72 254.327 37.9457 255.345 38.1714C255.911 38.2843 256.137 38.2843 256.363 38.2843C256.589 38.2843 256.815 38.2843 257.268 36.5916C257.268 36.5916 257.72 35.2375 257.381 34.7861C257.042 34.4476 254.78 33.7705 251.387 33.7705C249.238 33.7705 246.411 33.9962 245.619 34.8989C244.94 35.576 244.94 38.0586 244.94 38.6228C244.94 40.2026 245.28 41.7824 245.732 42.121C246.411 42.6852 248.107 43.0237 249.916 43.2494H250.03C250.482 43.3622 250.934 43.3622 251.387 43.4751C252.292 43.5879 253.422 43.8136 253.649 43.9265C253.649 44.0393 253.762 44.265 253.762 44.7164C253.762 45.0549 253.762 45.1677 253.649 45.2806C253.309 45.3934 252.291 45.5063 251.613 45.5063C250.143 45.5063 248.446 45.1677 247.202 45.0549C246.524 44.942 246.184 44.942 246.071 44.942H245.958C245.506 45.0549 245.053 46.1833 244.94 46.6347C244.827 46.9732 244.601 48.2145 244.827 48.5531C245.053 48.8916 247.881 49.4558 251.5 49.4558C254.214 49.4558 256.363 49.1173 256.815 48.5531C257.268 48.1017 257.607 46.409 257.607 44.6035C257.607 42.9109 257.268 41.4439 256.928 40.9925C256.476 40.5411 255.119 40.2026 252.744 39.7512Z" fill="#295F4E"/>
<path d="M264.167 34.3346C263.827 34.1089 262.018 34.1089 262.018 34.1089C261.678 34.1089 260.208 34.1089 259.869 34.4474C259.643 34.5603 259.643 34.8988 259.643 36.1401V47.4245C259.643 48.5529 259.756 48.8914 259.982 49.1171C260.321 49.3428 262.131 49.3428 262.131 49.3428C262.583 49.3428 264.053 49.3428 264.28 49.1171C264.506 49.0043 264.619 48.6657 264.619 47.4245V36.1401C264.393 34.7859 264.393 34.4474 264.167 34.3346Z" fill="#295F4E"/>
<path d="M264.167 28.4667C263.94 28.241 262.809 28.1282 262.018 28.1282C261.339 28.1282 260.208 28.241 259.869 28.4667C259.53 28.8052 259.53 29.9337 259.53 30.3851C259.53 30.8364 259.643 32.0777 259.869 32.3034C260.095 32.5291 261.565 32.6419 262.018 32.6419C262.47 32.6419 263.94 32.5291 264.167 32.3034C264.28 32.0777 264.506 31.2878 264.506 30.3851C264.506 29.5951 264.393 28.8052 264.167 28.4667Z" fill="#295F4E"/>
<path d="M278.643 44.9421H278.53C278.417 44.9421 278.304 44.9421 277.964 45.0549C277.173 45.1678 275.815 45.5063 274.119 45.5063C272.875 45.5063 271.518 45.2806 271.292 45.1678C271.179 45.0549 271.065 44.0394 271.065 43.1366V43.0238H271.179C271.97 43.1366 273.214 43.2494 274.119 43.2494C274.232 43.2494 274.345 43.2494 274.345 43.2494C275.815 43.2494 278.756 42.9109 279.321 42.3467C279.774 41.8953 280 39.977 280 38.51C280 36.7045 279.435 35.0118 279.095 34.6733C278.53 33.9962 276.72 33.6577 273.554 33.6577C271.179 33.6577 268.238 33.7706 267.446 34.5605C266.994 35.0118 266.429 37.3816 266.429 40.9926C266.429 41.2183 266.429 47.0861 267.559 48.2146C268.351 49.0045 271.518 49.1173 273.101 49.1173C276.833 49.1173 279.208 48.3274 279.435 47.876C279.548 47.6504 279.321 46.7476 279.208 46.2962C279.321 46.2962 278.982 45.0549 278.643 44.9421ZM271.179 37.6073C271.292 37.4944 272.083 37.3816 273.667 37.2687C275.137 37.2687 275.929 37.4944 275.929 37.4944C275.929 37.6073 276.042 37.9458 276.042 38.6228C276.042 39.1871 275.929 39.6384 275.929 39.7513C275.702 39.8641 274.798 39.977 273.554 39.977C272.649 39.977 271.292 39.8641 270.952 39.7513C270.952 39.6384 270.839 39.2999 270.839 38.7357C270.952 37.8329 271.179 37.6073 271.179 37.6073Z" fill="#295F4E"/>
<path d="M240.611 66.005C240.582 65.9856 240.582 65.8498 240.601 65.5977C240.62 65.3456 240.649 65.1128 240.708 64.9091C240.766 64.6667 240.844 64.4533 240.95 64.2594C241.047 64.0654 241.135 63.9685 241.203 63.9491C241.242 63.9491 241.465 63.9781 241.872 64.046C242.28 64.1139 242.775 64.1818 243.377 64.2594C243.969 64.337 244.483 64.3661 244.92 64.3661C245.172 64.3661 245.473 64.3564 245.803 64.3176C246.133 64.2885 246.327 64.2497 246.395 64.2012C246.473 64.1527 246.521 63.9588 246.521 63.629C246.521 63.2217 246.483 62.9987 246.415 62.9405C246.376 62.9211 245.531 62.7562 243.872 62.4459C243.338 62.3489 242.95 62.281 242.697 62.2228C242.445 62.1743 242.154 62.0968 241.824 61.9998C241.494 61.9028 241.261 61.7961 241.135 61.6894C241.028 61.6119 240.931 61.3597 240.834 60.9427C240.737 60.5354 240.688 60.0602 240.688 59.5171C240.688 59.0613 240.717 58.5958 240.776 58.1206C240.834 57.6551 240.931 57.3448 241.067 57.1993C241.261 57.0054 241.698 56.8502 242.397 56.7338C243.086 56.6174 243.872 56.5496 244.745 56.5496C245.464 56.5496 246.124 56.598 246.745 56.6853C247.366 56.7726 247.812 56.8599 248.094 56.9472C248.375 57.0442 248.54 57.112 248.599 57.1702C248.628 57.2284 248.628 57.3642 248.608 57.5678C248.579 57.7715 248.54 57.9558 248.492 58.1303C248.317 58.7607 248.171 59.0807 248.074 59.0807C248.036 59.0904 247.841 59.0613 247.473 59.0031C247.104 58.9449 246.657 58.8868 246.143 58.8286C245.619 58.7704 245.182 58.7316 244.833 58.7316C244.464 58.7316 244.134 58.7607 243.833 58.7995C243.522 58.8383 243.338 58.8868 243.27 58.9449C243.183 59.0225 243.144 59.2165 243.144 59.5074C243.144 59.8178 243.183 60.0117 243.28 60.099C243.309 60.1281 243.377 60.1572 243.493 60.1863C243.61 60.2154 243.755 60.2445 243.94 60.2833C244.124 60.322 244.299 60.3511 244.464 60.3705C244.619 60.3996 244.823 60.4384 245.075 60.4772C245.328 60.516 245.512 60.5451 245.648 60.5645C246.114 60.6615 246.444 60.7197 246.638 60.7584C246.832 60.7972 247.094 60.8554 247.405 60.9233C247.715 60.9912 247.948 61.0494 248.104 61.1076C248.249 61.1658 248.356 61.2142 248.414 61.2724C248.511 61.3791 248.608 61.641 248.686 62.058C248.764 62.4847 248.812 62.9696 248.812 63.532C248.812 64.1042 248.754 64.6279 248.647 65.0934C248.531 65.5686 248.424 65.8692 248.307 66.005C248.191 66.1408 247.832 66.2572 247.24 66.3638C246.648 66.4705 245.871 66.519 244.92 66.519C244.114 66.519 243.357 66.4802 242.659 66.4026C241.96 66.325 241.445 66.2572 241.135 66.1796C240.814 66.102 240.64 66.0438 240.611 66.005Z" fill="#69BE28"/>
<path d="M233.911 65.3359V61.9998C233.911 60.933 233.93 60.0214 233.989 59.2747C234.037 58.5376 234.086 58.0236 234.144 57.7521C234.202 57.4806 234.26 57.306 234.328 57.2284C234.425 57.112 234.639 57.0054 234.988 56.889C235.328 56.7823 235.629 56.7241 235.901 56.7241C235.998 56.7241 236.066 56.7629 236.095 56.8211L236.163 56.9472C236.221 57.0829 236.299 57.1411 236.405 57.1411C236.464 57.1411 236.823 57.0442 237.483 56.8502C238.143 56.6562 238.618 56.5496 238.9 56.5496C239.094 56.5496 239.23 56.6465 239.317 56.8211C239.395 56.9957 239.463 57.2963 239.501 57.7036C239.521 58.0624 239.521 58.3049 239.501 58.4213C239.482 58.5376 239.434 58.6249 239.356 58.6637C239.23 58.7413 238.958 58.7704 238.531 58.7704C238.201 58.7704 237.851 58.7995 237.483 58.8577C237.114 58.9158 236.91 58.974 236.852 59.0225C236.755 59.1001 236.716 59.6141 236.716 60.5451V65.3359C236.716 65.9177 236.677 66.2281 236.619 66.2863C236.502 66.3832 236.075 66.422 235.318 66.422C234.561 66.422 234.134 66.3832 234.018 66.2863C233.94 66.2281 233.911 65.9177 233.911 65.3359Z" fill="#69BE28"/>
<path d="M229.137 66.2669L229.05 66.0923C229.001 66.0147 228.943 65.9662 228.885 65.9662C228.836 65.9662 228.681 66.0147 228.429 66.102C228.167 66.199 227.837 66.2862 227.429 66.3832C227.021 66.4802 226.623 66.519 226.235 66.519C225.662 66.519 225.109 66.4705 224.575 66.3735C224.042 66.2766 223.702 66.1602 223.566 66.0244C223.411 65.8789 223.275 65.5298 223.158 64.9867C223.042 64.4436 222.984 63.8618 222.984 63.2605C222.984 62.8532 223.013 62.4168 223.071 61.9513C223.129 61.4858 223.217 61.1949 223.333 61.0785C223.469 60.9427 223.886 60.8069 224.605 60.6809C225.313 60.5548 225.983 60.4869 226.614 60.4869C226.876 60.4869 227.177 60.5063 227.507 60.5257C227.837 60.5548 228.118 60.5839 228.341 60.6033C228.555 60.6227 228.7 60.6324 228.759 60.613C228.972 60.5936 229.079 60.3996 229.079 60.0311C229.079 59.8081 229.06 59.585 229.021 59.3716C228.982 59.1583 228.943 59.0225 228.904 58.9643C228.836 58.8868 228.603 58.8189 228.215 58.7607C227.817 58.7025 227.371 58.6637 226.866 58.6637C226.478 58.6637 226.051 58.6928 225.585 58.751C225.119 58.8092 224.731 58.8674 224.44 58.9255C224.148 58.9837 223.993 59.0031 223.974 58.9934C223.925 58.9934 223.867 58.8868 223.789 58.6928C223.712 58.4988 223.644 58.2952 223.605 58.0915C223.479 57.529 223.45 57.209 223.517 57.1411C223.634 57.0248 224.08 56.889 224.876 56.7532C225.672 56.6174 226.468 56.5496 227.274 56.5496C228.147 56.5496 228.933 56.6077 229.642 56.7241C230.341 56.8405 230.797 56.986 231.001 57.1702C231.185 57.3545 231.34 57.8491 231.457 58.654C231.573 59.4686 231.632 60.4287 231.632 61.5537C231.632 62.3877 231.583 63.3284 231.486 64.3855C231.389 65.4425 231.302 66.0147 231.214 66.102C231.137 66.1699 230.855 66.2378 230.36 66.3153C229.865 66.3929 229.535 66.422 229.38 66.422C229.254 66.422 229.176 66.3735 229.137 66.2669ZM225.43 64.3952C225.488 64.4533 225.692 64.5018 226.031 64.5503C226.371 64.6085 226.759 64.6279 227.206 64.6182C228.099 64.6182 228.642 64.5406 228.836 64.3661C228.962 64.2497 229.03 63.7551 229.03 62.8726C229.03 62.601 228.982 62.4362 228.885 62.3877C228.555 62.281 227.963 62.2228 227.109 62.2228C226.817 62.2228 226.546 62.2422 226.284 62.2713C226.012 62.3004 225.808 62.3295 225.672 62.3683C225.536 62.4071 225.449 62.4362 225.42 62.4556C225.284 62.572 225.226 62.8726 225.226 63.3478C225.226 63.5805 225.245 63.7939 225.284 64.0072C225.323 64.2206 225.371 64.3564 225.43 64.3952Z" fill="#69BE28"/>
<path d="M218.559 66.2669L218.472 66.0923C218.423 66.0147 218.365 65.9662 218.307 65.9662C218.258 65.9662 218.103 66.0147 217.851 66.102C217.589 66.199 217.259 66.2862 216.851 66.3832C216.443 66.4802 216.046 66.519 215.657 66.519C215.085 66.519 214.531 66.4705 213.998 66.3735C213.464 66.2766 213.124 66.1602 212.988 66.0244C212.833 65.8789 212.697 65.5298 212.581 64.9867C212.464 64.4436 212.406 63.8618 212.406 63.2605C212.406 62.8532 212.435 62.4168 212.493 61.9513C212.551 61.4858 212.639 61.1949 212.755 61.0785C212.891 60.9427 213.308 60.8069 214.027 60.6809C214.735 60.5548 215.405 60.4869 216.036 60.4869C216.298 60.4869 216.599 60.5063 216.929 60.5257C217.259 60.5548 217.54 60.5839 217.763 60.6033C217.977 60.6227 218.123 60.6324 218.181 60.613C218.394 60.5936 218.501 60.3996 218.501 60.0311C218.501 59.8081 218.482 59.585 218.443 59.3716C218.404 59.1583 218.365 59.0225 218.326 58.9643C218.258 58.8868 218.025 58.8189 217.637 58.7607C217.239 58.7025 216.793 58.6637 216.288 58.6637C215.9 58.6637 215.473 58.6928 215.007 58.751C214.541 58.8092 214.153 58.8674 213.862 58.9255C213.571 58.9837 213.415 59.0031 213.396 58.9934C213.347 58.9934 213.289 58.8868 213.211 58.6928C213.134 58.4988 213.066 58.2952 213.027 58.0915C212.901 57.529 212.872 57.209 212.94 57.1411C213.056 57.0248 213.503 56.889 214.298 56.7532C215.094 56.6174 215.89 56.5496 216.696 56.5496C217.569 56.5496 218.355 56.6077 219.064 56.7241C219.763 56.8405 220.219 56.986 220.423 57.1702C220.607 57.3545 220.763 57.8491 220.879 58.654C220.995 59.4686 221.054 60.4287 221.054 61.5537C221.054 62.3877 221.005 63.3284 220.908 64.3855C220.811 65.4425 220.724 66.0147 220.636 66.102C220.559 66.1699 220.277 66.2378 219.782 66.3153C219.287 66.3929 218.957 66.422 218.802 66.422C218.676 66.422 218.598 66.3735 218.559 66.2669ZM214.852 64.3952C214.91 64.4533 215.114 64.5018 215.453 64.5503C215.793 64.6085 216.181 64.6279 216.628 64.6182C217.521 64.6182 218.064 64.5406 218.258 64.3661C218.385 64.2497 218.453 63.7551 218.453 62.8726C218.453 62.601 218.404 62.4362 218.307 62.3877C217.977 62.281 217.385 62.2228 216.531 62.2228C216.24 62.2228 215.968 62.2422 215.706 62.2713C215.434 62.3004 215.23 62.3295 215.094 62.3683C214.958 62.4071 214.871 62.4362 214.842 62.4556C214.706 62.572 214.648 62.8726 214.648 63.3478C214.648 63.5805 214.667 63.7939 214.706 64.0072C214.745 64.2206 214.793 64.3564 214.852 64.3952Z" fill="#69BE28"/>
<path d="M205.817 65.3359V61.9998C205.817 60.933 205.837 60.0214 205.895 59.2747C205.943 58.5376 205.992 58.0236 206.05 57.7521C206.108 57.4806 206.167 57.306 206.234 57.2284C206.332 57.112 206.545 57.0054 206.894 56.889C207.234 56.7823 207.535 56.7241 207.807 56.7241C207.904 56.7241 207.972 56.7629 208.001 56.8211L208.069 56.9472C208.127 57.0829 208.205 57.1411 208.311 57.1411C208.37 57.1411 208.729 57.0442 209.389 56.8502C210.049 56.6562 210.524 56.5496 210.806 56.5496C211 56.5496 211.136 56.6465 211.223 56.8211C211.301 56.9957 211.369 57.2963 211.408 57.7036C211.427 58.0624 211.427 58.3049 211.408 58.4213C211.388 58.5376 211.34 58.6249 211.262 58.6637C211.136 58.7413 210.864 58.7704 210.437 58.7704C210.107 58.7704 209.758 58.7995 209.389 58.8577C209.02 58.9158 208.816 58.974 208.758 59.0225C208.661 59.1001 208.622 59.6141 208.622 60.5451V65.3359C208.622 65.9177 208.583 66.2281 208.525 66.2863C208.409 66.3832 207.981 66.422 207.224 66.422C206.467 66.422 206.04 66.3832 205.924 66.2863C205.846 66.2281 205.817 65.9177 205.817 65.3359Z" fill="#69BE28"/>
<path d="M195.964 65.9468C195.721 65.7044 195.546 65.074 195.449 64.0557C195.342 63.0472 195.294 62.1162 195.294 61.2627C195.294 60.4869 195.333 59.779 195.42 59.1292C195.498 58.4794 195.585 57.9945 195.682 57.6842C195.779 57.3739 195.866 57.1799 195.944 57.0926C196.303 56.7338 197.594 56.5496 199.826 56.5496C201.845 56.5496 203.029 56.7435 203.359 57.1314C203.476 57.2672 203.592 57.5775 203.709 58.0624C203.825 58.5473 203.893 59.0613 203.893 59.585C203.893 60.1087 203.845 60.613 203.757 61.0979C203.66 61.5925 203.573 61.8931 203.476 61.9998C203.35 62.1162 202.942 62.2325 202.263 62.3295C201.583 62.4265 200.923 62.4847 200.292 62.4944C199.652 62.5138 198.953 62.4653 198.176 62.3295C198.021 62.3198 197.924 62.3295 197.876 62.3683C197.827 62.4071 197.808 62.4847 197.808 62.601C197.798 62.8823 197.817 63.1829 197.856 63.503C197.895 63.823 197.953 64.0169 198.031 64.0945C198.109 64.1915 198.361 64.2691 198.798 64.3273C199.234 64.3952 199.661 64.4243 200.079 64.4243C200.564 64.4243 201.049 64.3952 201.535 64.3176C202.02 64.2497 202.389 64.1818 202.651 64.1236C202.913 64.0654 203.059 64.046 203.078 64.046C203.107 64.0654 203.156 64.1527 203.233 64.3273C203.311 64.5018 203.369 64.6764 203.418 64.851C203.456 65.0255 203.486 65.2195 203.515 65.4328C203.534 65.6559 203.544 65.782 203.534 65.8207C203.515 65.8498 203.456 65.8886 203.35 65.9371C203.243 65.9856 203.078 66.0438 202.845 66.1117C202.612 66.1796 202.35 66.2475 202.049 66.3056C201.748 66.3638 201.37 66.422 200.923 66.4608C200.467 66.4996 199.991 66.519 199.506 66.519C198.701 66.519 197.953 66.4705 197.254 66.3638C196.556 66.2669 196.129 66.1214 195.964 65.9468ZM197.914 60.516C197.992 60.5936 198.254 60.6518 198.681 60.7003C199.108 60.7487 199.496 60.7681 199.836 60.7681C200.118 60.7681 200.389 60.7584 200.661 60.7197C200.933 60.6906 201.137 60.6615 201.273 60.6227C201.409 60.5936 201.496 60.5645 201.535 60.5354C201.641 60.4287 201.7 60.1184 201.7 59.6141C201.7 59.0904 201.641 58.7704 201.535 58.6734C201.467 58.6249 201.282 58.5764 200.972 58.5279C200.661 58.4891 200.273 58.46 199.826 58.46C199.361 58.4697 198.963 58.4988 198.633 58.5473C198.303 58.6055 198.109 58.654 198.06 58.7025C197.885 58.8577 197.808 59.1874 197.808 59.682C197.808 60.1669 197.837 60.4481 197.914 60.516Z" fill="#69BE28"/>
<path d="M190.333 56.792V53.9311C190.333 53.3687 190.362 53.0486 190.439 52.9807C190.478 52.9516 190.633 52.9226 190.895 52.8935C191.158 52.8644 191.429 52.845 191.711 52.845C192.39 52.845 192.798 52.8935 192.914 52.9807C192.982 53.0486 193.021 53.3687 193.021 53.9311V65.0352C193.021 65.6753 192.943 66.0826 192.788 66.2572C192.701 66.3735 192.322 66.422 191.662 66.422C191.216 66.422 190.963 66.3832 190.925 66.296L190.779 66.0535C190.721 65.9468 190.663 65.8886 190.585 65.8886C190.488 65.8886 190.362 65.9274 190.226 65.9856C190.08 66.0535 189.925 66.1311 189.76 66.2087C189.595 66.2863 189.333 66.3638 188.964 66.422C188.595 66.4899 188.168 66.519 187.683 66.519C186.77 66.519 186.013 66.4511 185.412 66.3154C184.81 66.1796 184.431 66.0341 184.276 65.8789C184.121 65.7238 183.975 65.2292 183.839 64.3855C183.703 63.5418 183.635 62.6011 183.635 61.5537C183.635 60.4675 183.703 59.4977 183.849 58.6443C183.995 57.8006 184.14 57.306 184.276 57.1508C184.412 56.9957 184.761 56.8599 185.305 56.7338C185.848 56.6175 186.528 56.5496 187.353 56.5496C187.896 56.5496 188.372 56.6078 188.77 56.7047C189.158 56.8114 189.459 56.9181 189.663 57.0151C189.857 57.112 189.993 57.1605 190.07 57.1605C190.245 57.1605 190.333 57.0442 190.333 56.792ZM186.343 64.0169C186.382 64.0654 186.46 64.1139 186.586 64.1527C186.712 64.2012 186.916 64.24 187.207 64.2788C187.489 64.3176 187.819 64.337 188.188 64.337C188.683 64.337 189.129 64.2982 189.527 64.2206C189.925 64.143 190.168 64.0654 190.255 63.9976C190.274 63.9782 190.303 63.8521 190.342 63.629C190.371 63.4157 190.4 63.1053 190.42 62.7077C190.439 62.3101 190.459 61.8931 190.459 61.4664C190.459 60.8845 190.43 60.3511 190.391 59.8662C190.342 59.3911 190.294 59.1292 190.255 59.071C190.177 59.0031 189.915 58.9353 189.449 58.8577C188.983 58.7801 188.556 58.7413 188.158 58.7413C187.13 58.7413 186.528 58.848 186.343 59.0613C186.266 59.1389 186.198 59.4298 186.13 59.9535C186.052 60.4772 186.023 61.0106 186.023 61.5343C186.023 61.9416 186.043 62.3392 186.081 62.7271C186.12 63.115 186.169 63.4254 186.217 63.6387C186.256 63.8521 186.305 63.9782 186.343 64.0169Z" fill="#69BE28"/>
<path d="M172.026 65.3359V61.6701C172.026 60.4481 172.065 59.4589 172.143 58.6928C172.22 57.9364 172.317 57.4515 172.434 57.2381C172.531 57.1023 172.754 56.986 173.123 56.8793C173.482 56.7823 173.783 56.7241 174.026 56.7241C174.113 56.7241 174.171 56.7629 174.21 56.8211L174.268 56.9472C174.336 57.1023 174.433 57.1702 174.55 57.1702C174.647 57.1702 174.773 57.1411 174.938 57.0732C175.093 57.0151 175.268 56.9375 175.452 56.8599C175.627 56.7823 175.908 56.7144 176.277 56.6465C176.646 56.5884 177.063 56.5496 177.529 56.5496C178.286 56.5496 178.985 56.6174 179.626 56.7532C180.266 56.889 180.645 57.0248 180.781 57.1702C180.917 57.3351 181.053 57.8782 181.179 58.7898C181.305 59.7014 181.373 60.6615 181.373 61.6507V65.3359C181.373 65.9177 181.334 66.2281 181.266 66.2863C181.159 66.3832 180.723 66.422 179.965 66.422C179.218 66.422 178.791 66.3832 178.675 66.2863C178.597 66.2281 178.568 65.9177 178.568 65.3359V60.5354C178.568 60.1572 178.548 59.8178 178.519 59.5074C178.48 59.2068 178.442 59.0322 178.403 58.9934C178.354 58.9546 178.141 58.8965 177.772 58.8383C177.403 58.7801 177.034 58.751 176.675 58.751C176.335 58.751 175.976 58.7898 175.608 58.8674C175.239 58.9449 175.016 59.0031 174.957 59.0516C174.87 59.1292 174.831 59.6238 174.831 60.5354V65.3359C174.831 65.908 174.792 66.2281 174.724 66.2863C174.608 66.3832 174.181 66.422 173.424 66.422C172.676 66.422 172.249 66.3832 172.133 66.2863C172.055 66.2281 172.026 65.9177 172.026 65.3359Z" fill="#69BE28"/>
<path d="M167.281 66.2669L167.194 66.0923C167.146 66.0147 167.087 65.9662 167.029 65.9662C166.981 65.9662 166.825 66.0147 166.573 66.102C166.311 66.199 165.981 66.2862 165.573 66.3832C165.166 66.4802 164.768 66.519 164.379 66.519C163.807 66.519 163.254 66.4705 162.72 66.3735C162.186 66.2766 161.846 66.1602 161.71 66.0244C161.555 65.8789 161.419 65.5298 161.303 64.9867C161.186 64.4436 161.128 63.8618 161.128 63.2605C161.128 62.8532 161.157 62.4168 161.215 61.9513C161.274 61.4858 161.361 61.1949 161.477 61.0785C161.613 60.9427 162.031 60.8069 162.749 60.6809C163.457 60.5548 164.127 60.4869 164.758 60.4869C165.02 60.4869 165.321 60.5063 165.651 60.5257C165.981 60.5548 166.262 60.5839 166.486 60.6033C166.699 60.6227 166.845 60.6324 166.903 60.613C167.116 60.5936 167.223 60.3996 167.223 60.0311C167.223 59.8081 167.204 59.585 167.165 59.3716C167.126 59.1583 167.087 59.0225 167.049 58.9643C166.981 58.8868 166.748 58.8189 166.359 58.7607C165.961 58.7025 165.515 58.6637 165.01 58.6637C164.622 58.6637 164.195 58.6928 163.729 58.751C163.263 58.8092 162.875 58.8674 162.584 58.9255C162.293 58.9837 162.137 59.0031 162.118 58.9934C162.069 58.9934 162.011 58.8868 161.934 58.6928C161.856 58.4988 161.788 58.2952 161.749 58.0915C161.623 57.529 161.594 57.209 161.662 57.1411C161.778 57.0248 162.225 56.889 163.021 56.7532C163.817 56.6174 164.612 56.5496 165.418 56.5496C166.291 56.5496 167.078 56.6077 167.786 56.7241C168.485 56.8405 168.941 56.986 169.145 57.1702C169.329 57.3545 169.485 57.8491 169.601 58.654C169.718 59.4686 169.776 60.4287 169.776 61.5537C169.776 62.3877 169.727 63.3284 169.63 64.3855C169.533 65.4425 169.446 66.0147 169.359 66.102C169.281 66.1699 168.999 66.2378 168.504 66.3153C168.009 66.3929 167.679 66.422 167.524 66.422C167.398 66.422 167.32 66.3735 167.281 66.2669ZM163.574 64.3952C163.632 64.4533 163.836 64.5018 164.176 64.5503C164.515 64.6085 164.904 64.6279 165.35 64.6182C166.243 64.6182 166.786 64.5406 166.981 64.3661C167.107 64.2497 167.175 63.7551 167.175 62.8726C167.175 62.601 167.126 62.4362 167.029 62.3877C166.699 62.281 166.107 62.2228 165.253 62.2228C164.962 62.2228 164.69 62.2422 164.428 62.2713C164.156 62.3004 163.952 62.3295 163.817 62.3683C163.681 62.4071 163.593 62.4362 163.564 62.4556C163.428 62.572 163.37 62.8726 163.37 63.3478C163.37 63.5805 163.389 63.7939 163.428 64.0072C163.467 64.2206 163.516 64.3564 163.574 64.3952Z" fill="#69BE28"/>
<path d="M154.539 65.3359V61.9998C154.539 60.933 154.559 60.0214 154.617 59.2747C154.665 58.5376 154.714 58.0236 154.772 57.7521C154.83 57.4806 154.889 57.306 154.957 57.2284C155.054 57.112 155.267 57.0054 155.617 56.889C155.956 56.7823 156.257 56.7241 156.529 56.7241C156.626 56.7241 156.694 56.7629 156.723 56.8211L156.791 56.9472C156.849 57.0829 156.927 57.1411 157.034 57.1411C157.092 57.1411 157.451 57.0442 158.111 56.8502C158.771 56.6562 159.247 56.5496 159.528 56.5496C159.722 56.5496 159.858 56.6465 159.945 56.8211C160.023 56.9957 160.091 57.2963 160.13 57.7036C160.149 58.0624 160.149 58.3049 160.13 58.4213C160.11 58.5376 160.062 58.6249 159.984 58.6637C159.858 58.7413 159.586 58.7704 159.159 58.7704C158.829 58.7704 158.48 58.7995 158.111 58.8577C157.742 58.9158 157.538 58.974 157.48 59.0225C157.383 59.1001 157.344 59.6141 157.344 60.5451V65.3359C157.344 65.9177 157.305 66.2281 157.247 66.2863C157.131 66.3832 156.704 66.422 155.947 66.422C155.19 66.422 154.762 66.3832 154.646 66.2863C154.568 66.2281 154.539 65.9177 154.539 65.3359Z" fill="#69BE28"/>
<path d="M144.686 65.9468C144.443 65.7044 144.268 65.074 144.171 64.0557C144.065 63.0472 144.016 62.1162 144.016 61.2627C144.016 60.4869 144.055 59.779 144.142 59.1292C144.22 58.4794 144.307 57.9945 144.404 57.6842C144.501 57.3739 144.589 57.1799 144.666 57.0926C145.025 56.7338 146.316 56.5496 148.549 56.5496C150.567 56.5496 151.752 56.7435 152.082 57.1314C152.198 57.2672 152.314 57.5775 152.431 58.0624C152.547 58.5473 152.615 59.0613 152.615 59.585C152.615 60.1087 152.567 60.613 152.479 61.0979C152.382 61.5925 152.295 61.8931 152.198 61.9998C152.072 62.1162 151.664 62.2325 150.985 62.3295C150.305 62.4265 149.645 62.4847 149.015 62.4944C148.374 62.5138 147.675 62.4653 146.899 62.3295C146.743 62.3198 146.646 62.3295 146.598 62.3683C146.549 62.4071 146.53 62.4847 146.53 62.601C146.52 62.8823 146.54 63.1829 146.578 63.503C146.617 63.823 146.675 64.0169 146.753 64.0945C146.831 64.1915 147.083 64.2691 147.52 64.3273C147.957 64.3952 148.384 64.4243 148.801 64.4243C149.286 64.4243 149.772 64.3952 150.257 64.3176C150.742 64.2497 151.111 64.1818 151.373 64.1236C151.635 64.0654 151.781 64.046 151.8 64.046C151.829 64.0654 151.878 64.1527 151.955 64.3273C152.033 64.5018 152.091 64.6764 152.14 64.851C152.179 65.0255 152.208 65.2195 152.237 65.4328C152.256 65.6559 152.266 65.782 152.256 65.8207C152.237 65.8498 152.179 65.8886 152.072 65.9371C151.965 65.9856 151.8 66.0438 151.567 66.1117C151.334 66.1796 151.072 66.2475 150.771 66.3056C150.47 66.3638 150.092 66.422 149.645 66.4608C149.189 66.4996 148.714 66.519 148.228 66.519C147.423 66.519 146.675 66.4705 145.977 66.3638C145.278 66.2669 144.851 66.1214 144.686 65.9468ZM146.637 60.516C146.714 60.5936 146.976 60.6518 147.403 60.7003C147.83 60.7487 148.219 60.7681 148.558 60.7681C148.84 60.7681 149.112 60.7584 149.383 60.7197C149.655 60.6906 149.859 60.6615 149.995 60.6227C150.131 60.5936 150.218 60.5645 150.257 60.5354C150.364 60.4287 150.422 60.1184 150.422 59.6141C150.422 59.0904 150.364 58.7704 150.257 58.6734C150.189 58.6249 150.005 58.5764 149.694 58.5279C149.383 58.4891 148.995 58.46 148.549 58.46C148.083 58.4697 147.685 58.4988 147.355 58.5473C147.025 58.6055 146.831 58.654 146.782 58.7025C146.607 58.8577 146.53 59.1874 146.53 59.682C146.53 60.1669 146.559 60.4481 146.637 60.516Z" fill="#69BE28"/>
<path d="M135.866 65.5201L132.585 57.8588C132.42 57.4903 132.352 57.2866 132.391 57.2284C132.42 57.1702 132.556 57.0829 132.808 56.9472C133.051 56.8211 133.313 56.7144 133.585 56.6174C134.07 56.4623 134.468 56.375 134.778 56.375C134.876 56.375 135.002 56.6077 135.157 57.0636L137.632 63.4254C137.651 63.4836 137.7 63.5127 137.778 63.5127C137.846 63.5127 137.894 63.4836 137.923 63.4254L140.379 57.0539C140.544 56.6077 140.67 56.375 140.748 56.375C140.99 56.375 141.369 56.472 141.873 56.6659C142.495 56.9084 142.825 57.0829 142.844 57.1799C142.854 57.2284 142.786 57.4418 142.65 57.8297L139.525 65.5589C139.35 65.9953 139.224 66.2378 139.146 66.2959C138.991 66.3832 138.535 66.422 137.778 66.422C137.399 66.422 137.069 66.4123 136.788 66.3832C136.496 66.3541 136.341 66.325 136.302 66.2959C136.263 66.2766 136.196 66.1699 136.098 65.9953C136.001 65.8208 135.924 65.6656 135.866 65.5201Z" fill="#69BE28"/>
<path d="M122.484 65.3359V61.9998C122.484 60.933 122.503 60.0214 122.561 59.2747C122.61 58.5376 122.658 58.0236 122.716 57.7521C122.775 57.4806 122.833 57.306 122.901 57.2284C122.998 57.112 123.211 57.0054 123.561 56.889C123.901 56.7823 124.201 56.7241 124.473 56.7241C124.57 56.7241 124.638 56.7629 124.667 56.8211L124.735 56.9472C124.793 57.0829 124.871 57.1411 124.978 57.1411C125.036 57.1411 125.395 57.0442 126.055 56.8502C126.715 56.6562 127.191 56.5496 127.472 56.5496C127.666 56.5496 127.802 56.6465 127.89 56.8211C127.967 56.9957 128.035 57.2963 128.074 57.7036C128.093 58.0624 128.093 58.3049 128.074 58.4213C128.055 58.5376 128.006 58.6249 127.928 58.6637C127.802 58.7413 127.531 58.7704 127.103 58.7704C126.773 58.7704 126.424 58.7995 126.055 58.8577C125.686 58.9158 125.483 58.974 125.424 59.0225C125.327 59.1001 125.288 59.6141 125.288 60.5451V65.3359C125.288 65.9177 125.25 66.2281 125.191 66.2863C125.075 66.3832 124.648 66.422 123.891 66.422C123.134 66.422 122.707 66.3832 122.59 66.2863C122.513 66.2281 122.484 65.9177 122.484 65.3359Z" fill="#69BE28"/>
<path d="M111.559 65.9371C111.394 65.7917 111.239 65.3359 111.093 64.5697C110.948 63.8133 110.88 62.8144 110.88 61.5828C110.88 60.419 110.948 59.4298 111.103 58.6346C111.258 57.8394 111.414 57.3642 111.588 57.209C111.744 57.0635 112.19 56.9181 112.928 56.7726C113.665 56.6271 114.539 56.5496 115.548 56.5496C116.519 56.5496 117.392 56.6271 118.169 56.7726C118.945 56.9181 119.421 57.0635 119.586 57.2187C119.731 57.3545 119.877 57.8491 120.013 58.6928C120.149 59.5365 120.217 60.4966 120.217 61.5828C120.217 62.6398 120.139 63.5902 119.994 64.4436C119.838 65.2971 119.693 65.7917 119.537 65.9468C119.392 66.0923 118.955 66.2281 118.217 66.3444C117.48 66.4608 116.596 66.519 115.548 66.519C114.5 66.519 113.617 66.4608 112.889 66.3444C112.161 66.2281 111.714 66.0923 111.559 65.9371ZM113.597 64.0169C113.665 64.0945 113.879 64.1624 114.228 64.2303C114.578 64.3079 115.014 64.337 115.548 64.337C116.092 64.337 116.538 64.3079 116.888 64.2303C117.237 64.1624 117.441 64.0945 117.509 64.0169C117.586 63.9394 117.654 63.6775 117.722 63.2217C117.79 62.7756 117.829 62.2228 117.829 61.5731C117.829 60.933 117.79 60.3705 117.732 59.8856C117.664 59.4007 117.596 59.1195 117.528 59.0419C117.431 58.9643 117.208 58.8868 116.859 58.8286C116.499 58.7704 116.063 58.7316 115.548 58.7316C115.053 58.7316 114.626 58.7704 114.267 58.8286C113.908 58.8965 113.694 58.9643 113.626 59.0419C113.549 59.1389 113.471 59.4298 113.394 59.9147C113.316 60.3996 113.277 60.9524 113.277 61.5731C113.277 61.9998 113.296 62.4071 113.335 62.7853C113.374 63.1732 113.413 63.4642 113.461 63.6581C113.51 63.8618 113.559 63.9781 113.597 64.0169Z" fill="#69BE28"/>
<path d="M100.052 65.9371C99.8874 65.7917 99.7321 65.3359 99.5866 64.5697C99.441 63.8133 99.373 62.8144 99.373 61.5828C99.373 60.419 99.441 59.4298 99.5963 58.6346C99.7516 57.8394 99.9068 57.3642 100.082 57.209C100.237 57.0635 100.683 56.9181 101.421 56.7726C102.159 56.6271 103.032 56.5496 104.042 56.5496C105.012 56.5496 105.886 56.6271 106.662 56.7726C107.439 56.9181 107.914 57.0635 108.079 57.2187C108.225 57.3545 108.37 57.8491 108.506 58.6928C108.642 59.5365 108.71 60.4966 108.71 61.5828C108.71 62.6398 108.632 63.5902 108.487 64.4436C108.332 65.2971 108.186 65.7917 108.031 65.9468C107.885 66.0923 107.448 66.2281 106.711 66.3444C105.973 66.4608 105.09 66.519 104.042 66.519C102.993 66.519 102.11 66.4608 101.382 66.3444C100.654 66.2281 100.208 66.0923 100.052 65.9371ZM102.091 64.0169C102.159 64.0945 102.372 64.1624 102.722 64.2303C103.071 64.3079 103.508 64.337 104.042 64.337C104.585 64.337 105.032 64.3079 105.381 64.2303C105.73 64.1624 105.934 64.0945 106.002 64.0169C106.08 63.9394 106.148 63.6775 106.216 63.2217C106.284 62.7756 106.322 62.2228 106.322 61.5731C106.322 60.933 106.284 60.3705 106.225 59.8856C106.157 59.4007 106.089 59.1195 106.022 59.0419C105.924 58.9643 105.701 58.8868 105.352 58.8286C104.993 58.7704 104.556 58.7316 104.042 58.7316C103.547 58.7316 103.119 58.7704 102.76 58.8286C102.401 58.8965 102.188 58.9643 102.12 59.0419C102.042 59.1389 101.964 59.4298 101.887 59.9147C101.809 60.3996 101.77 60.9524 101.77 61.5731C101.77 61.9998 101.79 62.4071 101.829 62.7853C101.867 63.1732 101.906 63.4642 101.955 63.6581C102.003 63.8618 102.052 63.9781 102.091 64.0169Z" fill="#69BE28"/>
<path d="M91.2225 65.5201L87.942 57.8588C87.777 57.4903 87.709 57.2866 87.7479 57.2284C87.777 57.1702 87.9129 57.0829 88.1652 56.9472C88.4078 56.8211 88.6699 56.7144 88.9417 56.6174C89.427 56.4623 89.8249 56.375 90.1355 56.375C90.2325 56.375 90.3587 56.6077 90.514 57.0636L92.989 63.4254C93.0084 63.4836 93.0569 63.5127 93.1346 63.5127C93.2025 63.5127 93.2511 63.4836 93.2802 63.4254L95.7357 57.0539C95.9007 56.6077 96.0269 56.375 96.1046 56.375C96.3472 56.375 96.7257 56.472 97.2304 56.6659C97.8516 56.9084 98.1816 57.0829 98.201 57.1799C98.2107 57.2284 98.1428 57.4418 98.0069 57.8297L94.8816 65.5589C94.7069 65.9953 94.5808 66.2378 94.5031 66.2959C94.3478 66.3832 93.8916 66.422 93.1346 66.422C92.7561 66.422 92.4261 66.4123 92.1446 66.3832C91.8534 66.3541 91.6981 66.325 91.6593 66.2959C91.6205 66.2766 91.5525 66.1699 91.4555 65.9953C91.3584 65.8208 91.2808 65.6656 91.2225 65.5201Z" fill="#69BE28"/>
</svg>
