<svg xmlns="http://www.w3.org/2000/svg" width="113" height="116" viewBox="0 0 113 116" fill="none">
  <path d="M59.3214 78.0841C59.0885 78.2498 58.823 78.352 58.5501 78.3866C58.2773 78.4212 57.9971 78.3882 57.735 78.2852L5.22473 57.4492L11.1278 111.814C11.2232 112.692 12.0271 113.312 12.925 113.199L110.393 100.838C110.394 100.838 110.395 100.837 110.396 100.837C110.588 100.812 110.768 100.744 110.94 100.657C110.983 100.635 111.024 100.613 111.065 100.588C111.223 100.49 111.371 100.375 111.49 100.228C111.492 100.225 111.493 100.222 111.495 100.219C111.583 100.11 111.659 99.9892 111.718 99.8559C111.731 99.8259 111.726 99.7946 111.738 99.7643C111.775 99.6646 111.789 99.5612 111.806 99.4546C111.823 99.3453 111.842 99.2403 111.836 99.1326C111.835 99.1013 111.848 99.0729 111.845 99.0414L105.942 44.6767L59.3214 78.0841Z" fill="white" fill-opacity="0.5"/>
  <path d="M92.6005 49.7377L102.595 42.5469L91.2952 37.8952L92.6005 49.7377Z" fill="white" fill-opacity="0.5"/>
  <path d="M17.2435 46.6779L7.27332 54.0886L18.5488 58.5205L17.2435 46.6779Z" fill="white" fill-opacity="0.5"/>
  <path d="M84.8215 4.95137C84.7245 4.0705 83.9166 3.45071 83.0154 3.56737L17.7918 12.0099C16.8906 12.1265 16.2399 12.9351 16.3368 13.816L21.4482 60.2624L57.7505 74.5491L89.9329 51.3978L84.8215 4.95137Z" fill="white"/>
  <rect x="62.9912" y="24.586" width="6.37551" height="16.6744" transform="rotate(-7.56765 62.9912 24.586)" fill="#A3CD39"/>
  <rect x="55.213" y="25.6194" width="6.37551" height="16.6744" transform="rotate(-7.56765 55.213 25.6194)" fill="#A3CD39"/>
  <rect x="46.9489" y="26.7178" width="6.37551" height="16.6744" transform="rotate(-7.56765 46.9489 26.7178)" fill="#A3CD39"/>
  <rect x="39.1702" y="27.7507" width="6.37551" height="16.6744" transform="rotate(-7.56765 39.1702 27.7507)" fill="#A3CD39"/>
  <rect x="41.8827" y="46.9927" width="21.5787" height="8.82764" transform="rotate(-7.56765 41.8827 46.9927)" fill="#A3CD39"/>
</svg>