<svg width="154" height="168" viewBox="0 0 154 168" fill="none" xmlns="http://www.w3.org/2000/svg">
<path d="M9.43095 69.1265C1.1154 70.1615 0 81.8304 0 87.5981C0 93.3658 1.10708 104.709 9.43095 103.674C17.7548 102.648 18.8619 91.0287 18.8619 85.261C18.8619 79.4933 17.7548 68.0998 9.43095 69.1265ZM9.43095 98.1319C6.1014 98.5409 6.04313 87.7484 6.1014 86.8386C6.04313 85.9454 6.1014 75.1363 9.43095 74.7273C12.7605 74.3183 12.8188 85.1108 12.7605 86.0206C12.8188 86.9137 12.7605 97.7229 9.43095 98.1402V98.1319Z" fill="white"/>
<path d="M40.0046 65.4121L34.7356 66.0632C34.5191 66.0882 34.2861 66.2802 34.2861 66.5139V80.0024C34.2861 80.3947 33.9448 80.4365 33.8366 80.1193L29.2418 67.0898C29.1835 66.8728 29.0171 66.781 28.7923 66.806L23.4068 67.4654C23.1903 67.4905 22.9573 67.6825 22.9573 67.9162V100.619C22.9573 100.845 23.182 101.037 23.4068 101.012L28.734 100.352C28.9505 100.327 29.1253 100.077 29.1253 99.8513V86.5965C29.1253 86.2042 29.4665 86.1624 29.5748 86.4796L34.1695 99.3421C34.2278 99.5592 34.3943 99.651 34.619 99.6259L40.0628 98.9582C40.2876 98.9332 40.4541 98.7412 40.4541 98.5158V65.7627C40.4541 65.5373 40.2293 65.3954 40.0046 65.4205V65.4121Z" fill="white"/>
<path d="M59.449 63.1417L45.107 64.9113C44.774 64.953 44.5576 65.2034 44.5576 65.5373V97.7729C44.5576 98.1068 44.7824 98.2987 45.107 98.257L59.449 96.4875C59.782 96.4457 59.9984 96.1953 59.9984 95.8615V90.7198C59.9984 90.3859 59.782 90.1939 59.449 90.2357L51.2167 91.254C50.8838 91.2957 50.6673 91.1037 50.6673 90.7699V84.6266C50.6673 84.2343 50.8838 84.0423 51.2167 84.0006L59.449 82.9822C59.782 82.9405 59.9984 82.6901 59.9984 82.3562V77.273C59.9984 76.9391 59.782 76.7471 59.449 76.7889L51.2167 77.8072C50.8838 77.8489 50.6673 77.707 50.6673 77.3231V71.0629C50.6673 70.729 50.8838 70.4786 51.2167 70.4369L59.449 69.4186C59.782 69.3768 59.9984 69.1264 59.9984 68.7926V63.6509C59.9984 63.317 59.782 63.125 59.449 63.1668V63.1417Z" fill="white"/>
<path d="M125.358 54.3275L120.58 54.9201C120.363 54.9452 120.13 55.1372 120.13 55.3709V88.0823C120.13 88.3076 120.355 88.4996 120.58 88.4746L124.975 87.932C125.191 87.907 125.366 87.6566 125.366 87.4312V79.4516C125.366 79.1678 125.532 79.0342 125.807 79.0009C127.805 78.9257 135.588 77.9492 135.588 65.312C135.588 52.6748 125.358 54.3275 125.358 54.3275ZM126.19 73.2248C125.907 73.2582 125.799 73.0495 125.799 72.8242V60.9048C125.799 60.6795 125.907 60.4458 126.19 60.404C127.247 60.2204 130.027 60.3206 130.027 66.2802C130.027 72.2399 127.247 73.1497 126.19 73.2248Z" fill="white"/>
<path d="M153.992 83.7168L149.056 51.957C148.998 51.6314 148.831 51.4812 148.506 51.5229L142.014 52.3326C141.681 52.3743 141.514 52.5079 141.464 52.9085L136.745 85.862C136.687 86.2042 136.911 86.4546 137.244 86.4129L142.297 85.7868C142.63 85.7451 142.796 85.6116 142.846 85.2193L143.346 81.964C143.404 81.5633 143.57 81.4298 143.895 81.388L146.892 81.0124C147.225 80.9707 147.391 81.0625 147.441 81.4465L147.832 84.5932C147.89 84.9772 148.057 85.069 148.382 85.0273L153.492 84.3929C153.825 84.3512 154.042 84.0424 153.992 83.7168ZM146.392 75.7956L144.336 76.046C144.003 76.0878 143.729 75.8374 143.787 75.4952L145.01 66.756C145.069 66.2969 145.618 66.2301 145.676 66.6725L146.9 75.1028C146.958 75.4284 146.733 75.7372 146.4 75.7789H146.392V75.7956Z" fill="white"/>
<path d="M35.776 53.0753L36.625 53.3591L36.1922 54.6529L38.0234 55.2705L38.3231 54.3691L39.1721 54.6529L38.8725 55.5543L41.8607 56.556L41.5528 57.4658L35.0352 55.2789L35.776 53.0753Z" fill="white"/>
<path d="M41.9271 51.4895C42.6929 51.8066 42.8344 51.8985 43.0342 52.1823C43.2756 52.5245 43.3089 53.0086 43.1258 53.4593C42.9426 53.9101 42.5764 54.2272 42.1685 54.3024C41.8189 54.3608 41.6441 54.3191 40.895 54.0102L37.7652 52.7248C37.016 52.416 36.8579 52.3158 36.6581 52.032C36.4334 51.6898 36.3917 51.2057 36.5749 50.7549C36.758 50.3042 37.1242 49.987 37.5238 49.9036C37.8734 49.8451 38.0482 49.8869 38.7973 50.1957L41.9271 51.4811V51.4895ZM38.0732 50.9386C37.7069 50.7883 37.5155 50.8301 37.4072 51.0972C37.299 51.3559 37.4072 51.5312 37.7652 51.6814L41.6275 53.2757C41.9937 53.4259 42.1852 53.3842 42.2934 53.1171C42.4016 52.8584 42.2934 52.6831 41.9271 52.5328L38.0648 50.9386H38.0732Z" fill="white"/>
<path d="M37.6987 48.4178L38.1232 47.5581L43.4921 50.1957L44.0915 48.9687L44.8989 49.361L43.875 51.4477L37.6987 48.4178Z" fill="white"/>
<path d="M39.1804 45.463L39.6549 44.6283L44.8656 47.5747L45.5315 46.3895L46.314 46.8319L45.1736 48.8602L39.1887 45.4713L39.1804 45.463Z" fill="white"/>
<path d="M46.6637 43.0425C47.3546 43.4932 47.4711 43.6101 47.6209 43.9356C47.7874 44.3195 47.7291 44.8037 47.4711 45.2043C47.2047 45.6133 46.7885 45.8554 46.3723 45.8554C46.0227 45.847 45.8563 45.7803 45.1737 45.3295L42.3436 43.4682C41.661 43.0174 41.5362 42.9006 41.3863 42.5751C41.2282 42.1994 41.2865 41.7153 41.5445 41.3063C41.8109 40.8973 42.227 40.6553 42.6349 40.6553C42.9845 40.6636 43.151 40.7304 43.8336 41.1811L46.6637 43.0425ZM42.9845 41.7738C42.6599 41.5567 42.4601 41.5651 42.302 41.8071C42.1521 42.0409 42.2187 42.2328 42.5434 42.4499L46.0311 44.7452C46.3557 44.9623 46.5555 44.9539 46.7136 44.7119C46.8634 44.4781 46.7969 44.2862 46.4722 44.0691L42.9845 41.7738Z" fill="white"/>
<path d="M43.0095 39.278L43.5506 38.5852L46.9301 40.6135L44.1416 37.834L44.6077 37.2414L48.0871 39.3782L45.1987 36.4902L45.7398 35.7974L50.6175 40.7387L50.1015 41.3981L46.8718 39.5117L49.5105 42.1577L48.9861 42.8338L43.0345 39.278H43.0095Z" fill="white"/>
<path d="M48.8944 33.694L48.2618 34.3367L47.6208 33.7023L49.5853 31.7074L50.2262 32.3418L49.5686 33.0095L53.8305 37.2163L53.1562 37.9008L48.8944 33.694Z" fill="white"/>
<path d="M53.5557 33.1179L55.645 35.4885L54.9292 36.1228L50.3677 30.9645L51.0835 30.3301L52.9564 32.4502L53.5391 31.9327L51.6662 29.8126L52.3821 29.1782L56.9435 34.3366L56.2277 34.971L54.1384 32.6004L53.5557 33.1179Z" fill="white"/>
<path d="M55.1872 26.9496L55.7366 27.6591L54.6628 28.4938L55.8448 30.0213L56.5939 29.437L57.1433 30.1465L56.3942 30.7308L57.7759 32.517L58.9163 31.6322L59.4657 32.3417L57.5678 33.8191L53.356 28.3686L55.1872 26.9413V26.9496Z" fill="white"/>
<path d="M59.9901 23.7611L60.9723 23.1602L64.5516 29.053L63.844 29.4871L61.3219 25.3303L63.1615 29.9128L62.8119 30.1298L59.5988 26.3904L62.121 30.5471L61.4301 30.9645L57.8508 25.0716L58.8164 24.479L61.1804 27.0581L59.9817 23.7695L59.9901 23.7611Z" fill="white"/>
<path d="M66.8739 25.898C67.2485 26.6325 67.2901 26.7994 67.2568 27.15C67.2152 27.5674 66.9239 27.9597 66.491 28.1767C66.0582 28.3937 65.5754 28.3937 65.2175 28.185C64.9178 28.0014 64.8096 27.8595 64.4434 27.125L62.9201 24.0951C62.5538 23.3689 62.5039 23.1936 62.5372 22.843C62.5871 22.434 62.8785 22.0501 63.3113 21.8247C63.7442 21.6077 64.2269 21.6077 64.5849 21.808C64.8845 21.9916 64.9927 22.1335 65.359 22.8681L66.8823 25.898H66.8739ZM64.3185 22.9515C64.1437 22.601 63.9689 22.5008 63.7109 22.6343C63.4612 22.7596 63.4279 22.9599 63.6027 23.3104L65.4839 27.0498C65.6587 27.4004 65.8335 27.5006 66.0915 27.367C66.3412 27.2418 66.3745 27.0415 66.1997 26.6909L64.3185 22.9515Z" fill="white"/>
<path d="M71.1772 25.973L70.2949 26.3403L67.8643 23.4272L69.2461 26.7743L68.3637 27.1416L65.7334 20.7729L66.4992 20.4558L69.2211 23.7277L67.6729 19.9716L68.5552 19.6044L71.1855 25.973H71.1772Z" fill="white"/>
<path d="M71.9515 18.4275L72.2345 19.2789L70.9443 19.713L71.5519 21.5493L72.4509 21.2488L72.7339 22.1002L71.8349 22.4006L72.5508 24.5458L73.9159 24.0867L74.1989 24.9381L71.9182 25.6977L69.7373 19.1537L71.9348 18.4192L71.9515 18.4275Z" fill="white"/>
<path d="M72.9504 18.1187L73.9576 17.8599L75.1063 20.1887L74.9815 17.5928L75.9554 17.3424L75.9221 21.5158L76.6379 24.287L75.714 24.5291L74.9981 21.7579L72.9504 18.127V18.1187Z" fill="white"/>
<path d="M79.1099 20.7146L80.3834 20.4976L80.5166 21.2905L79.243 21.5075L79.1099 20.7146Z" fill="white"/>
<path d="M85.586 20.4475C85.6276 20.8147 85.6526 20.9817 85.6692 21.1653C85.7691 22.3923 85.3695 23.0267 84.4373 23.1018C83.5466 23.1769 83.0472 22.6594 82.9556 21.566L82.6393 17.7848C82.5477 16.6914 82.9556 16.0988 83.8463 16.0236C84.7702 15.9485 85.2863 16.5078 85.3862 17.7014C85.4028 17.8683 85.4112 17.9768 85.4112 18.2523L84.4539 18.3357C84.4539 18.1187 84.4539 18.0269 84.4373 17.86C84.3707 17.1004 84.2625 16.9001 83.9212 16.9251C83.6132 16.9501 83.5466 17.1087 83.5966 17.7097L83.9129 21.4908C83.9628 22.0918 84.0544 22.2337 84.3624 22.2087C84.7036 22.1836 84.7785 21.9666 84.712 21.2321C84.6953 21.0234 84.6703 20.8398 84.6287 20.5226L85.586 20.4391V20.4475Z" fill="white"/>
<path d="M89.2234 21.0568C89.2401 21.8831 89.2068 22.05 89.032 22.3505C88.8072 22.7094 88.3827 22.9265 87.8999 22.9348C87.4172 22.9432 86.976 22.7345 86.7429 22.3839C86.5515 22.0834 86.5182 21.9081 86.5015 21.0985L86.4433 17.7097C86.4266 16.8917 86.4599 16.7164 86.6347 16.4159C86.8595 16.0737 87.284 15.8483 87.7668 15.84C88.2496 15.84 88.6907 16.0403 88.9238 16.3825C89.1152 16.683 89.1485 16.8583 89.1569 17.6679L89.2151 21.0568H89.2234ZM88.1996 17.2923C88.1996 16.9 88.0747 16.7331 87.7917 16.7414C87.517 16.7414 87.3922 16.9167 87.4005 17.309L87.4671 21.4908C87.4671 21.8831 87.592 22.05 87.875 22.0417C88.1497 22.0417 88.2745 21.8664 88.2662 21.4741L88.1996 17.2923Z" fill="white"/>
<path d="M93.0775 23.0099L92.1203 22.9515L91.2047 19.2705L90.9882 22.8847L90.031 22.8263L90.4472 15.9485L91.2713 15.9986L92.2951 20.1303L92.5365 16.0737L93.4937 16.1321L93.0775 23.0099Z" fill="white"/>
<path d="M97.0479 16.5578L96.9313 17.4509L95.5829 17.2756L95.3415 19.1954L96.2821 19.3122L96.1655 20.2053L95.2249 20.0885L94.8254 23.2269L93.8765 23.1017L94.7505 16.2656L97.0479 16.5578Z" fill="white"/>
<path d="M98.9376 16.8917C99.6951 17.0419 100.02 17.2256 100.219 17.6346C100.403 17.9935 100.428 18.4776 100.303 19.112C100.136 19.955 99.9864 20.2388 99.5036 20.6645L99.5286 24.0283L98.5131 23.8279L98.5381 20.8064C98.3716 20.8064 98.3383 20.8064 98.1968 20.7813L97.6391 23.6527L96.6985 23.469L98.0137 16.6997L98.9376 16.8833V16.8917ZM98.5131 19.8632C98.8128 19.9216 99.0042 19.8882 99.1291 19.7296C99.2289 19.6128 99.2789 19.4542 99.3954 18.8365C99.5369 18.102 99.437 17.91 98.9126 17.8015L98.7795 17.7765L98.3799 19.8381L98.5131 19.8632Z" fill="white"/>
<path d="M103.216 23.1935C102.999 23.9948 102.925 24.1451 102.666 24.3871C102.359 24.6709 101.884 24.7627 101.41 24.6375C100.935 24.5123 100.577 24.1868 100.452 23.7861C100.352 23.4439 100.369 23.2686 100.577 22.484L101.46 19.2121C101.676 18.4275 101.751 18.2605 102.009 18.0185C102.317 17.7514 102.791 17.6512 103.257 17.7764C103.724 17.9016 104.09 18.2271 104.215 18.6111C104.315 18.945 104.298 19.1286 104.09 19.9132L103.208 23.1852L103.216 23.1935ZM103.274 19.2872C103.374 18.9116 103.307 18.7196 103.033 18.6445C102.766 18.5693 102.6 18.7029 102.5 19.0785L101.41 23.1184C101.31 23.494 101.376 23.686 101.651 23.7611C101.917 23.8362 102.084 23.7027 102.184 23.3271L103.274 19.2872Z" fill="white"/>
<path d="M106.371 26.1317L105.463 25.8145L105.597 22.025L104.398 25.4389L103.491 25.1217L105.78 18.6195L106.554 18.895L106.404 23.1519L107.753 19.3206L108.66 19.6378L106.371 26.14V26.1317Z" fill="white"/>
<path d="M110.141 21.2237L109.317 20.8648L109.675 20.0385L112.239 21.1569L111.881 21.9833L111.024 21.6077L108.635 27.0999L107.752 26.7159L110.141 21.2237Z" fill="white"/>
<path d="M114.919 23.5358L114.137 23.1017L114.57 22.3171L117.008 23.6777L116.576 24.4623L115.76 24.0032L112.855 29.245L112.014 28.7776L114.919 23.5358Z" fill="white"/>
<path d="M116.717 27.8844L115.003 30.5387L114.195 30.0129L117.941 24.2285L118.748 24.7544L117.209 27.1332L117.866 27.5589L119.406 25.1801L120.213 25.7059L116.468 31.4903L115.66 30.9644L117.375 28.3101L116.717 27.8844Z" fill="white"/>
<path d="M123.085 27.8261L122.552 28.5439L121.462 27.7259L120.305 29.2785L121.062 29.846L120.53 30.5639L119.772 29.9963L118.424 31.8076L119.581 32.6756L119.048 33.3935L117.125 31.9495L121.237 26.4238L123.093 27.8178L123.085 27.8261Z" fill="white"/>
<path d="M126.223 30.4887C126.839 31.0563 126.997 31.3401 126.964 31.7908C126.931 32.2499 126.747 32.5754 126.156 33.2265C125.532 33.9026 125.241 34.1029 124.816 34.153C124.442 34.1947 124.026 34.0278 123.601 33.6355L123.501 33.5437L121.612 35.6053L120.904 34.9543L125.557 29.8794L126.223 30.4971V30.4887ZM124.2 32.9761C124.617 33.36 124.825 33.3016 125.482 32.5838C126.131 31.8743 126.173 31.6656 125.757 31.2733L125.657 31.1815L124.1 32.8759L124.2 32.9677V32.9761Z" fill="white"/>
<path d="M126.523 38.051C125.923 38.6186 125.782 38.7104 125.441 38.7855C125.033 38.8606 124.575 38.6937 124.242 38.3431C123.909 37.9925 123.768 37.5251 123.867 37.1161C123.959 36.7739 124.067 36.632 124.658 36.0728L127.114 33.744C127.705 33.1847 127.855 33.0846 128.196 33.0095C128.595 32.9427 129.053 33.1096 129.386 33.4602C129.719 33.8108 129.861 34.2782 129.769 34.6788C129.677 35.021 129.569 35.1629 128.978 35.7222L126.523 38.051ZM128.604 34.7539C128.887 34.4868 128.928 34.2865 128.729 34.0779C128.537 33.8775 128.329 33.9026 128.046 34.1697L125.016 37.0493C124.733 37.3164 124.691 37.5168 124.891 37.7254C125.083 37.9258 125.291 37.9007 125.574 37.6336L128.604 34.7539Z" fill="white"/>
<path d="M131.018 35.355L131.567 36.0394L128.82 38.869L132.158 36.7823L132.624 37.3749L129.753 40.2796L133.224 38.1178L133.773 38.8022L127.855 42.4248L127.33 41.7737L129.902 39.061L126.731 41.0225L126.198 40.3548L131.018 35.3633V35.355Z" fill="white"/>
<path d="M135.737 41.7152L134.997 42.216L134.231 41.0892L132.633 42.1743L133.165 42.9589L132.425 43.4597L131.892 42.6751L130.019 43.9439L130.826 45.1458L130.086 45.6466L128.737 43.6517L134.431 39.7871L135.729 41.7152H135.737Z" fill="white"/>
<path d="M136.828 43.5099C137.219 44.1776 137.286 44.5449 137.119 44.9706C136.969 45.3462 136.628 45.6801 136.062 46.0056C135.321 46.4396 135.005 46.5148 134.372 46.4313L131.867 48.6683L131.351 47.7751L133.623 45.7969C133.515 45.6717 133.498 45.6467 133.415 45.5215L130.893 46.9905L130.41 46.1642L136.353 42.6919L136.828 43.5015V43.5099ZM134.322 45.1542C134.481 45.4213 134.63 45.5382 134.83 45.5298C134.98 45.5298 135.138 45.4631 135.679 45.1459C136.32 44.7703 136.403 44.5699 136.137 44.1025L136.07 43.9857L134.264 45.0457L134.331 45.1626L134.322 45.1542Z" fill="white"/>
<path d="M141.939 26.2068C143.304 25.0632 143.345 24.8713 143.387 24.7043C143.512 24.2452 143.237 23.7695 142.779 23.6359C142.696 23.6192 142.621 23.6025 142.538 23.6025C142.238 23.6025 141.947 23.7695 141.805 24.0199L141.789 24.0449L141.772 24.0616C141.164 24.7377 137.569 27.5172 132.749 31.1314C133.14 31.5488 133.523 31.9828 133.906 32.4168C137.852 29.4537 140.499 27.4087 141.93 26.2068H141.939Z" fill="white"/>
<path d="M111.407 46.8737C111.04 47.1491 110.957 47.6833 111.223 48.0673C111.39 48.2843 111.64 48.4095 111.914 48.4095C112.097 48.4095 112.264 48.3511 112.414 48.2509C112.455 48.2175 112.614 48.1006 113.354 47.5664C114.894 46.448 118.166 44.0691 121.97 41.2729C121.578 40.8556 121.179 40.4299 120.779 40.0209C117.5 42.4248 114.27 44.7869 111.407 46.8653V46.8737Z" fill="white"/>
<path d="M110.599 97.5977C110.475 97.5977 110.35 97.631 110.225 97.6811C110.017 97.7896 109.859 97.9649 109.775 98.1819C109.7 98.399 109.717 98.6243 109.817 98.833V98.8497C109.9 99.0333 112.139 103.657 115.011 109.525C115.485 109.183 115.943 108.841 116.401 108.49C114.495 104.592 112.714 100.911 111.357 98.0901C111.207 97.7896 110.907 97.5977 110.591 97.5977H110.599Z" fill="white"/>
<path d="M127.538 133.564C127.655 133.623 127.788 133.656 127.921 133.656C128.121 133.656 128.312 133.581 128.462 133.464C128.562 133.381 128.637 133.297 128.695 133.189C128.853 132.821 128.762 132.404 128.471 132.162L128.454 132.145L128.437 132.129C127.871 131.394 125.74 127.296 123.093 121.995C122.619 122.321 122.153 122.647 121.678 122.964C126.822 133.214 127.214 133.414 127.563 133.581H127.555L127.538 133.564Z" fill="white"/>
<path d="M37.3326 28.9112C35.3349 27.4088 35.0935 27.4004 34.8688 27.3921H34.8188C34.3777 27.3921 34.0031 27.7677 33.9948 28.2101C33.9781 28.6274 34.2944 28.953 34.6191 29.0531H34.644L34.6607 29.0698C35.3349 29.4371 37.9486 31.4821 41.5112 34.3868C41.8608 33.9527 42.2188 33.5103 42.585 33.0847C40.246 31.1816 38.5146 29.8043 37.3243 28.9029L37.3326 28.9112Z" fill="white"/>
<path d="M64.5767 53.3759C64.7848 53.3759 64.9845 53.3008 65.1344 53.1756L65.2509 53.0754C65.5339 52.7082 65.484 52.174 65.126 51.8902L65.1094 51.8735C64.843 51.6231 59.8737 47.4246 54.022 42.5333C53.6558 42.9507 53.3061 43.3847 52.9565 43.8271C56.8188 47.0573 60.731 50.346 64.0523 53.1756C64.2437 53.3425 64.4518 53.3759 64.5933 53.3759H64.5767Z" fill="white"/>
<path d="M67.6314 40.2295C68.7385 41.949 69.7873 43.5683 70.8694 45.1542C71.0276 45.3795 71.2856 45.5214 71.5769 45.5214C71.7517 45.5214 71.9182 45.4714 72.0514 45.3795L72.0847 45.3462L72.1346 45.3044C72.4759 45.0206 72.5259 44.5365 72.2595 44.1442C71.1857 42.5667 70.1286 40.9223 69.0049 39.1778C68.7385 38.7688 68.4721 38.3515 68.1974 37.9341C67.1403 36.2731 66.1165 34.6789 65.0926 33.1263C64.6015 33.4268 64.1187 33.7273 63.6443 34.0445C64.7014 35.6388 65.7336 37.2497 66.7741 38.8857C67.0654 39.3364 67.3484 39.7871 67.6481 40.2295H67.6398H67.6314Z" fill="white"/>
<path d="M78.3944 40.505C78.3944 40.505 78.4693 40.505 78.5109 40.4967C78.694 40.4633 78.8355 40.3965 78.9604 40.2963C79.1685 40.1211 79.3017 39.8206 79.285 39.5785C79.2684 39.4116 78.6025 34.2783 77.7451 27.9012C77.1791 28.0431 76.6214 28.185 76.072 28.3436C76.6131 32.4002 77.1292 36.3566 77.5703 39.7705C77.6369 40.1878 77.9865 40.505 78.4027 40.505H78.3944Z" fill="white"/>
<path d="M74.2572 3.81216C73.7994 1.35818 73.6246 1.17455 73.4582 1.01596C73.2917 0.849018 73.0753 0.757202 72.8505 0.757202C72.6258 0.757202 72.401 0.849018 72.2429 1.01596C71.9266 1.31644 71.9599 1.75048 72.1263 2.04262L72.143 2.05931V2.07601C72.4593 2.95243 73.1751 7.52651 74.0408 13.5196C74.5985 13.3777 75.1646 13.2525 75.7306 13.1273C75.098 8.72012 74.6235 5.68186 74.2739 3.79546H74.2656L74.2572 3.81216Z" fill="white"/>
<path d="M96.3821 41.5568C96.482 41.5985 96.5819 41.6152 96.6901 41.6152C96.8815 41.6152 97.0813 41.5401 97.2394 41.4065C97.3726 41.2897 97.4475 41.1978 97.4892 41.0977C97.5058 41.0309 97.6307 40.7137 98.255 39.1111C99.0957 36.9242 100.586 33.043 102.25 28.7109C101.701 28.5356 101.152 28.3771 100.594 28.2268C98.9292 32.6089 97.2644 36.9159 95.891 40.4633C95.7245 40.889 95.9492 41.3815 96.3821 41.5568Z" fill="white"/>
<path d="M110.783 4.42985H110.774C110.666 4.05424 110.35 3.80383 109.975 3.80383C109.892 3.80383 109.8 3.82053 109.717 3.84557C109.326 3.97077 109.076 4.32134 109.101 4.69695V4.75538C108.976 5.59006 107.661 9.32112 105.838 14.2959C106.388 14.4628 106.937 14.6297 107.478 14.8134C111.007 5.19776 110.891 4.78876 110.791 4.42985H110.783Z" fill="white"/>
<path d="M87.5255 30.4804C87.0844 33.0012 86.6682 35.4635 86.3269 37.8841C86.2936 38.1094 86.3435 38.3348 86.4767 38.5101C86.6099 38.6937 86.818 38.8106 87.0427 38.844C87.0927 38.844 87.1343 38.8523 87.1842 38.8523C87.384 38.8523 87.5588 38.7855 87.7253 38.652C87.8918 38.5101 88 38.3265 88.0499 38.0844C88.3413 36.1145 88.6825 34.0862 89.0405 31.9494C89.1071 31.5571 89.1736 31.1648 89.2402 30.7642C89.4733 29.4454 89.7147 28.0598 89.9478 26.6408C89.49 26.6241 89.0238 26.6241 88.5577 26.6241H88.1831C87.975 27.8595 87.7752 29.0948 87.5671 30.3051L87.5338 30.4971L87.5255 30.4804Z" fill="white"/>
<path d="M110.283 35.4969C108.618 37.592 107.128 39.4784 105.697 41.4065C105.555 41.5985 105.497 41.8238 105.53 42.0408C105.563 42.2579 105.68 42.4582 105.855 42.5917C106.005 42.7086 106.179 42.767 106.371 42.767C106.571 42.767 106.762 42.7002 106.904 42.575C106.912 42.5667 106.92 42.5584 106.937 42.5417C106.987 42.4999 107.045 42.4332 107.153 42.3914C108.552 40.4967 110.05 38.6019 111.64 36.5903L112.123 35.981C112.605 35.3633 113.097 34.7457 113.588 34.1197C113.105 33.8025 112.614 33.4853 112.114 33.1848C111.507 33.9527 110.899 34.729 110.3 35.4802H110.291V35.4969H110.283Z" fill="white"/>
<path d="M57.4266 101.17C57.4016 100.953 57.285 100.744 57.1102 100.602C56.9604 100.486 56.7856 100.419 56.5858 100.419C56.3361 100.419 56.0864 100.536 55.9199 100.744C55.8617 100.819 55.6452 101.095 54.5548 102.455C54.5049 102.514 54.4716 102.572 54.4216 102.622C54.7962 103.048 55.1791 103.474 55.5703 103.883" fill="white"/>
<path d="M33.2455 105.594H33.2372C31.073 107.163 32.4964 106.011 30.5985 107.489C30.4154 107.631 30.2989 107.839 30.2573 108.056C30.224 108.273 30.2906 108.499 30.4237 108.682C30.5403 108.832 30.6984 108.941 30.8732 108.999C31.0647 109.058 31.2645 109.033 31.4393 108.958C31.4476 108.958 31.4642 108.941 31.4809 108.941C31.5391 108.908 31.6141 108.866 31.7306 108.849C33.5868 107.405 32.1718 108.549 34.2444 107.038L34.877 106.579H34.8687C37.8403 104.409 35.4347 106.37 37.499 104.592C37.1827 104.083 36.8664 103.566 36.5584 103.048C35.5429 103.808 36.2588 103.399 33.2455 105.594Z" fill="white"/>
<path d="M126.182 98.9331C126.057 98.833 125.924 98.7328 125.79 98.6326C124.45 97.5809 123.143 96.5376 121.878 95.5109C121.37 95.1103 120.871 94.7096 120.38 94.3173C118.873 93.107 117.458 91.9718 116.01 90.8868C115.852 90.7699 115.669 90.7031 115.485 90.7031C115.227 90.7031 114.978 90.8283 114.828 91.0453C114.686 91.2373 114.628 91.4627 114.653 91.6797C114.686 91.8967 114.803 92.097 114.978 92.2306C116.726 93.5744 118.632 95.0769 120.796 96.8464L121.512 97.414C122.586 98.2737 123.668 99.1502 124.767 100.01C124.817 100.043 124.866 100.085 124.908 100.127C125.399 99.7595 125.874 99.4006 126.165 98.9248L126.182 98.9331Z" fill="white"/>
<path d="M54.4465 102.614C52.6402 104.876 54.4465 102.497 50.426 107.622C48.3784 110.235 46.6303 112.472 45.157 114.375C42.7015 117.555 41.0034 119.8 39.9629 121.261C38.5146 123.298 38.5062 123.548 38.5062 123.765C38.4979 124.241 38.8642 124.616 39.3386 124.625C39.5301 124.625 39.7215 124.55 39.8797 124.416C39.9546 124.358 40.0961 124.207 40.1544 123.982V123.949L40.171 123.924C40.6871 122.93 43.0095 119.817 46.3307 115.56C48.9361 112.213 52.1574 108.156 55.5868 103.858C55.1956 103.449 54.8127 103.023 54.4381 102.597L54.4465 102.614Z" fill="white"/>
<path d="M100.011 119.249L101.135 118.991L102.667 125.71L101.859 125.894L100.777 121.144L101.077 126.069L100.677 126.161L98.8127 121.595L99.8948 126.344L99.1124 126.52L97.5808 119.8L98.6879 119.55L100.111 122.747L100.011 119.249Z" fill="white"/>
<path d="M104.706 125.101L103.824 125.384L102.634 118.532L103.816 118.156L106.754 124.458L105.863 124.742L105.231 123.314L104.407 123.581L104.715 125.109L104.706 125.101ZM103.574 119.542L104.223 122.688L104.856 122.488L103.574 119.542Z" fill="white"/>
<path d="M110.649 122.922L109.725 123.298L107.852 120.543L107.886 121.745L108.676 123.723L107.786 124.082L105.222 117.68L106.113 117.321L107.078 119.725L106.987 116.971L107.894 116.604L107.952 119.083L110.649 122.922Z" fill="white"/>
<path d="M110.724 115.235L111.116 116.044L109.892 116.637L110.733 118.373L111.59 117.956L111.981 118.765L111.124 119.183L112.114 121.219L113.413 120.585L113.804 121.395L111.64 122.446L108.635 116.245L110.724 115.226V115.235Z" fill="white"/>
<path d="M113.796 114.533L113.03 115.001L112.564 114.233L114.944 112.772L115.41 113.54L114.611 114.033L117.733 119.149L116.917 119.65L113.796 114.533Z" fill="white"/>
<path d="M118.349 114.951L120.18 117.53L119.398 118.089L115.41 112.472L116.193 111.912L117.833 114.225L118.474 113.765L116.834 111.453L117.616 110.894L121.603 116.512L120.821 117.071L118.99 114.492L118.349 114.951Z" fill="white"/>
<path d="M120.005 108.958L120.571 109.659L119.514 110.519L120.729 112.013L121.462 111.412L122.028 112.113L121.295 112.714L122.719 114.467L123.834 113.549L124.4 114.25L122.536 115.769L118.191 110.427L119.989 108.958H120.005Z" fill="white"/>
<path d="M126.864 108.54C127.13 108.799 127.255 108.908 127.388 109.033C128.254 109.901 128.362 110.644 127.696 111.312C127.064 111.946 126.348 111.879 125.574 111.103L122.894 108.424C122.119 107.647 122.045 106.929 122.677 106.295C123.335 105.636 124.084 105.728 124.933 106.579C125.049 106.696 125.133 106.779 125.308 106.98L124.633 107.664C124.492 107.497 124.425 107.43 124.309 107.313C123.768 106.771 123.559 106.696 123.318 106.938C123.102 107.155 123.152 107.322 123.576 107.747L126.256 110.427C126.681 110.852 126.847 110.903 127.064 110.686C127.305 110.443 127.222 110.235 126.706 109.717C126.556 109.575 126.423 109.45 126.19 109.225L126.864 108.54Z" fill="white"/>
<path d="M127.647 106.596L130.035 108.666L129.411 109.392L124.209 104.876L124.833 104.15L126.972 106.003L127.488 105.41L125.349 103.557L125.973 102.831L131.176 107.347L130.552 108.073L128.163 106.003L127.647 106.596Z" fill="white"/>
<path d="M132.458 105.711L131.9 106.454L126.948 101.579L127.688 100.586L133.74 103.983L133.182 104.734L131.834 103.95L131.318 104.642L132.458 105.702V105.711ZM128.304 101.855L130.66 104.033L131.051 103.499L128.296 101.855H128.304Z" fill="white"/>
<path d="M136.004 100.486L135.488 101.295L131.834 100.319L134.88 102.255L134.364 103.065L128.554 99.3672L128.995 98.6661L133.099 99.7678L129.678 97.5893L130.194 96.7797L136.004 100.477V100.486Z" fill="white"/>
<path d="M137.902 96.9966L137.66 97.4557L137.177 97.3556C137.394 97.7813 137.427 98.1235 137.269 98.4156C137.078 98.7745 136.695 98.9999 136.27 98.9916C135.946 98.9916 135.679 98.8997 135.13 98.6076L131.917 96.8881C130.951 96.3706 130.676 95.7112 131.101 94.9016C131.534 94.0919 132.283 93.9584 133.332 94.526C133.457 94.5927 133.582 94.6595 133.806 94.8014L133.357 95.6528C133.165 95.5276 133.082 95.4859 132.949 95.4107C132.275 95.0518 132.05 95.0351 131.892 95.3356C131.742 95.6111 131.842 95.753 132.375 96.0368L135.588 97.7562C136.037 97.9983 136.104 98.0233 136.229 98.0317C136.387 98.0317 136.503 97.9732 136.578 97.8397C136.653 97.7061 136.636 97.5392 136.528 97.414C136.453 97.3138 136.37 97.2554 135.979 97.0467L135.105 96.5793L134.905 96.9549L134.189 96.571L134.838 95.3523L137.918 97.005L137.902 96.9966Z" fill="white"/>
<path d="M133.115 90.9535L133.931 91.3208L133.374 92.5645L135.13 93.3574L135.521 92.4894L136.337 92.8566L135.946 93.7247L138.002 94.6512L138.593 93.3324L139.408 93.6997L138.418 95.8949L132.15 93.0653L133.107 90.9452L133.115 90.9535Z" fill="white"/>
<path d="M102.575 114.375C102.575 114.375 102.575 114.392 102.575 114.4L104.24 114.024C104.24 114.024 104.24 113.974 104.232 113.949V113.932C103.599 111.178 102.75 104.15 102.3 101.688C102.209 101.279 101.859 100.978 101.468 100.978C101.41 100.978 101.352 100.978 101.302 100.995C101.069 101.045 100.869 101.178 100.736 101.37C100.602 101.562 100.561 101.788 100.602 102.005V102.022C100.894 103.674 101.959 111.704 102.575 114.383V114.375Z" fill="white"/>
<path d="M108.294 138.698V138.681C107.661 135.926 107.245 131.761 106.795 129.299C106.787 129.241 106.762 129.19 106.745 129.14L105.089 129.516C105.089 129.516 105.089 129.583 105.097 129.616V129.633C105.389 131.286 106.021 136.461 106.637 139.132C106.72 139.524 107.07 139.791 107.469 139.791C107.536 139.791 107.603 139.791 107.661 139.774H107.669C107.769 139.758 107.877 139.699 107.994 139.607C108.26 139.39 108.368 139.056 108.294 138.706V138.698Z" fill="white"/>
<path d="M112.331 61.9481C112.331 61.9481 111.024 60.1952 108.219 59.4524C108.219 59.4524 109.775 56.8899 105.663 53.8266C105.663 53.8266 104.04 52.3241 101.801 52.5745C101.801 52.5745 103.483 49.0104 98.8128 46.7651C98.8128 46.7651 96.0077 45.2627 93.0777 46.7651C93.0777 46.7651 92.2703 43.0758 87.9086 43.0758C83.5469 43.0758 81.1163 45.3295 80.7417 47.8836L79.2601 47.7083C77.5953 47.508 75.9472 48.2091 74.9316 49.5446L66.666 60.4456C66.666 60.4456 62.1795 64.9446 63.0535 67.8827C63.9275 70.8208 65.792 73.5669 66.666 76.5718C67.4235 79.1593 68.131 86.3877 71.9184 90.1605C69.7625 94.4675 65.5257 102.965 63.3948 107.171C61.2222 111.487 56.8772 120.067 54.688 124.383C54.2302 125.451 54.9044 126.795 56.0364 127.062C56.2945 127.137 56.5941 127.137 56.8522 127.12L58.9248 127.045L63.0618 126.903C63.17 126.903 63.9108 126.87 64.1772 126.862C62.6872 130.259 56.9021 143.171 55.3206 146.711C54.1969 149.231 47.9373 163.212 46.9551 165.416C46.1976 167.01 48.2952 168.429 49.4856 167.177L49.6687 166.977L50.01 166.593L50.7008 165.825C59.1246 156.435 70.0039 144.49 78.6025 135.15C80.9997 132.538 90.9301 121.678 93.1276 119.283C94.01 118.39 93.6104 116.762 92.4368 116.361C92.1204 116.236 91.7126 116.244 91.6127 116.253L90.5805 116.27L86.4436 116.328L84.3709 116.37H84.3376C84.3376 116.37 84.3376 116.37 84.321 116.353C84.1212 116.512 98.7629 99.5758 104.065 93.4241C106.912 91.3291 108.96 87.0972 110.541 81.5799C112.597 74.3933 115.96 66.4554 112.347 61.9564L112.331 61.9481ZM104.415 54.5778C106.937 55.9884 107.237 57.6077 106.837 59.1686C106.654 58.3422 106.105 57.5576 105.788 57.2321C105.73 57.1653 105.613 57.2404 105.655 57.3156C106.812 59.419 106.063 61.105 105.963 61.3137C105.963 61.3137 105.963 61.3221 105.963 61.3304C105.813 61.6226 105.672 61.9147 105.539 62.1901C104.831 63.6842 102.775 66.5055 100.902 68.7591C99.9449 69.5771 98.6796 71.0712 95.5915 69.8776C95.4417 69.8526 95.4084 70.0195 95.5166 70.1197C96.041 70.5871 97.5643 71.4468 98.921 71.0044C98.6963 71.2382 97.8972 71.8391 97.7307 72.0228C95.8745 74.026 93.6354 71.9142 93.6354 71.9142C92.7281 71.0462 93.2192 69.5354 93.5272 68.4169C93.677 68.8509 94.0516 69.1264 94.3179 69.2683C94.3762 69.3017 94.4345 69.2266 94.3929 69.1765C93.5521 68.1665 94.1848 66.8477 94.1848 66.8477C94.5677 66.1132 94.884 65.3619 95.3335 64.6608C95.8995 63.7844 97.5476 61.2386 98.0637 60.3288C98.9127 58.8097 99.7451 57.2738 100.486 55.6879C101.818 52.8583 104.431 54.5611 104.431 54.5611L104.415 54.5778ZM92.8946 48.7183C93.061 48.6098 94.3013 47.9337 97.2313 49.1607C97.3562 49.2108 97.4394 49.0605 97.3395 48.9687C96.8068 48.518 95.4417 47.6666 94.2181 47.6582C95.5499 46.9821 97.2729 47.0573 99.0542 48.4929C102.292 51.1138 99.8866 54.8699 98.3051 57.3656C96.9316 59.5442 95.0255 62.7327 93.5688 65.4454C92.0872 66.5973 90.4224 66.9312 87.9169 65.7209C87.7754 65.6875 87.7171 65.8461 87.8253 65.9546C88.3997 66.5556 91.0716 68.058 92.6532 67.0814C90.2809 70.3951 86.1605 69.2683 85.6528 66.2133C84.9203 61.7895 92.0705 57.9416 92.9445 57.6494C93.8185 57.3573 96.1825 55.6462 95.8329 53.2757C95.4833 50.9052 91.9456 50.4628 91.9456 50.4628C92.1371 49.8117 92.4617 49.2108 92.8862 48.7016L92.8946 48.7183ZM91.5378 47.0155C92.1537 49.336 90.9551 50.3292 90.9551 50.3292C88.3997 50.1456 84.9702 48.8268 84.9702 48.8268C84.862 47.9086 84.9286 47.1658 85.1201 46.5648C85.145 46.473 85.1783 46.3979 85.2199 46.3144C85.4364 45.9889 86.1605 45.5131 88.5245 45.8052C88.6577 45.8219 88.6993 45.6466 88.5745 45.5966C88.1167 45.3795 87.1761 45.0957 86.2438 45.0707C88.0251 43.9439 91.0383 45.1291 91.5461 47.0155H91.5378ZM109.692 77.3314C109.526 79.5683 108.019 92.915 97.8556 94.0585C97.6225 94.0835 97.5559 94.4007 97.7557 94.5092C98.4383 94.8932 99.87 94.9683 101.035 94.7596C94.7175 101.896 82.9226 115.209 82.9142 115.226C81.9653 116.386 82.8893 118.223 84.3792 118.148C86.3354 118.123 89.8647 118.056 91.8208 118.031C91.8208 118.031 91.8208 118.031 91.8291 118.031C91.8458 118.047 91.8457 118.072 91.8457 118.072C91.8457 118.072 91.8458 118.081 91.8291 118.097L91.6543 118.289L91.3047 118.673C78.0781 133.439 63.0951 150.358 49.7602 164.974C49.4606 165.299 48.8363 165.992 48.545 166.301C48.4451 166.401 48.3369 166.409 48.1954 166.317C48.0955 166.234 48.0622 166.15 48.0871 166.067C48.0871 166.042 48.1038 166.017 48.1204 165.975L48.2287 165.741L48.4451 165.274C53.3395 154.749 60.573 139.082 65.484 128.573C65.6172 128.264 66.0251 127.513 66.0834 127.179C66.3497 126.052 65.4091 124.875 64.2604 124.892C62.2461 124.909 58.9415 124.95 56.8272 124.975C62.3792 114.6 68.9884 102.364 74.6237 92.0135C76.047 92.7063 79.4515 94.192 82.5563 94.192C83.4303 94.192 83.8215 94.167 83.8465 93.9917C83.8965 93.7079 83.2888 93.4325 82.3232 93.0903C76.5548 91.0119 75.6808 87.3226 74.4322 83.7585C73.1836 80.1943 71.4439 75.5702 70.6948 74.2013C69.9456 72.8324 65.9002 68.7675 67.2071 64.0181C67.2071 64.0181 68.2059 60.8296 71.0111 57.3323C73.8162 53.8349 76.2468 50.3376 76.2468 50.3376C76.2468 50.3376 77.3039 48.3343 80.2339 49.0271C83.164 49.7116 86.4685 50.7132 90.4557 51.2808C94.4428 51.84 95.192 52.5912 94.6925 54.1521C94.1931 55.713 93.3024 56.2555 90.2226 57.5159C88.8575 58.0751 87.7338 58.7429 84.604 58.6511C84.604 58.6511 83.1806 58.3255 82.2067 57.5075C82.1235 57.4408 81.9986 57.5075 82.0069 57.6161C82.0402 57.8832 82.1817 58.3673 82.6728 59.1185C83.5136 60.3956 81.5491 61.1802 81.5242 61.8646C81.4992 62.5491 81.2744 63.4255 79.7761 63.8679C78.8605 64.135 77.7867 64.4188 77.0958 64.594C76.9627 64.6274 76.971 64.8194 77.1125 64.8361C78.2029 64.953 80.209 65.2451 81.1413 65.9462C81.3077 66.0714 81.366 66.2801 81.2828 66.4721C81.058 66.9979 80.467 68.0997 79.3766 68.5004C79.2517 68.5505 79.2767 68.7341 79.4099 68.7424C80.0675 68.7842 81.0247 68.7925 81.8987 68.5588C83.422 68.1498 83.5469 67.9996 84.6373 69.4018C85.7277 70.8041 86.0357 72.6321 87.0346 74.3849C87.9752 76.0376 89.898 78.6168 90.3891 83.8002C90.4057 83.9504 90.6138 83.9504 90.6388 83.8002C90.8469 82.2894 91.005 79.2094 89.5484 76.1711C87.509 71.9226 88.15 72.0812 88.383 71.9142C88.7243 71.6805 89.5067 72.0895 90.3808 73.4584C91.2548 74.8356 93.0361 75.3365 93.7852 76.1211C94.3263 76.697 96.2075 79.4014 97.198 80.8371C97.2812 80.9623 97.4727 80.8621 97.4144 80.7202C96.8734 79.393 96.2075 77.0643 95.2336 75.8289C95.1337 75.6954 95.1836 75.5034 95.3418 75.4617C96.1242 75.253 97.764 74.8941 99.3955 75.6119C101.476 76.5301 105.447 78.9256 105.913 78.6836C106.146 78.5667 103.791 77.3481 104.165 77.1811C104.54 77.0142 106.08 76.3882 107.736 76.6386C109.401 76.889 106.654 75.3448 107.195 75.2613C107.736 75.1779 108.985 74.7188 109.193 74.8023C109.401 74.8857 109.859 75.0109 109.692 77.298V77.3314ZM64.1938 126.803C64.1938 126.803 64.1938 126.803 64.1938 126.795C64.1938 126.795 64.1938 126.795 64.1938 126.812V126.803ZM109.626 71.1797C109.476 71.3717 109.318 71.5637 109.151 71.7473V71.7306C109.151 71.7306 109.151 71.739 109.151 71.7557C108.868 72.0812 108.56 72.3984 108.235 72.6989C107.428 73.2998 106.063 73.8841 103.94 73.5335C103.791 73.5085 103.732 73.7172 103.865 73.7756C104.406 74.0177 105.147 74.2848 105.946 74.3682C104.606 75.061 102.6 75.8039 101.293 75.1528C98.638 73.8173 99.7951 72.1146 100.378 71.3633C100.96 70.6121 104.756 65.8377 106.254 62.9247C107.753 60.0116 110.2 61.5474 110.2 61.5474C113.613 63.6926 111.59 68.7257 109.634 71.1797H109.626Z" fill="white"/>
</svg>
