<svg xmlns="http://www.w3.org/2000/svg" width="38" height="38" viewBox="0 0 38 38" fill="none">
<g id="bi:signal" clip-path="url(#clip0_2054_6)">
<path id="Vector" d="M14.7409 1.28842L15.1528 2.96134C13.5241 3.36493 11.965 4.01028 10.5275 4.87589L9.64619 3.39626C11.2267 2.43891 12.9462 1.72813 14.7409 1.28842ZM23.5773 1.28842L23.1677 2.95904C24.7964 3.36263 26.3555 4.00797 27.7929 4.87359L28.6858 3.39395C27.0986 2.4391 25.3763 1.72926 23.5773 1.28842ZM3.3963 9.64154C2.4417 11.225 1.73112 12.9433 1.28846 14.7386L2.96139 15.1528C3.36497 13.524 4.01032 11.965 4.87593 10.5275L3.3963 9.63924V9.64154ZM2.47585 19.159C2.47299 18.3225 2.53531 17.4869 2.66224 16.66L0.959396 16.3977C0.682154 18.2266 0.682154 20.0869 0.959396 21.9158L2.66224 21.6581C2.53531 20.8312 2.47299 19.9956 2.47585 19.159ZM28.672 34.9172L27.7883 33.4445C26.3544 34.3118 24.7973 34.9566 23.17 35.3567L23.5842 37.032C25.3766 36.5863 27.0917 35.8734 28.672 34.9172ZM35.8446 19.159C35.8446 19.9982 35.7817 20.8312 35.6559 21.6581L37.3588 21.9158C37.636 20.0869 37.636 18.2266 37.3588 16.3977L35.6559 16.66C35.7817 17.4884 35.8446 18.3214 35.8446 19.159ZM37.032 23.5726L35.3568 23.1584C34.9536 24.7887 34.3083 26.3494 33.4422 27.7883L34.9219 28.6788C35.8781 27.0926 36.5895 25.3712 37.032 23.5726ZM21.6604 35.6536C20.0036 35.9067 18.3169 35.9067 16.66 35.6536L16.4023 37.361C18.2297 37.6378 20.0884 37.6378 21.9158 37.361L21.6581 35.6559L21.6604 35.6536ZM32.5908 29.0539C31.5971 30.4026 30.4046 31.5928 29.054 32.5839L30.0803 33.9761C31.5679 32.8834 32.8828 31.5732 33.9807 30.0894L32.5908 29.0539ZM29.054 5.72731C30.4047 6.7214 31.5967 7.91339 32.5908 9.26415L33.9807 8.22864C32.8866 6.7441 31.5757 5.43238 30.0918 4.33742L29.054 5.72731ZM5.72735 9.26415C6.72052 7.91301 7.91306 6.72048 9.2642 5.72731L8.22869 4.33742C6.74415 5.43151 5.43243 6.74245 4.33746 8.22634L5.72735 9.26185V9.26415ZM34.9242 9.63924L33.4422 10.5298C34.3098 11.9634 34.9564 13.5213 35.3568 15.1482L37.032 14.734C36.5891 12.9395 35.8786 11.222 34.9242 9.63924ZM16.6577 2.66219C18.3144 2.41296 19.9991 2.41296 21.6558 2.66219L21.9135 0.959353C20.0861 0.682576 18.2274 0.682576 16.4 0.959353L16.6577 2.66219ZM6.61099 34.4386L3.05113 35.267L3.87954 31.7025L2.20201 31.3113L1.3713 34.8735C1.30418 35.1593 1.31106 35.4574 1.39127 35.7398C1.47149 36.0221 1.62239 36.2793 1.82971 36.4871C2.03704 36.6949 2.29394 36.8464 2.57611 36.9272C2.85829 37.0081 3.15642 37.0156 3.44232 36.9491L7.00448 36.1276L6.61099 34.4386ZM2.55869 29.7719L4.24312 30.1585L4.8184 27.6894C3.97801 26.2809 3.35141 24.7555 2.95908 23.163L1.28616 23.5772C1.66167 25.1024 2.23084 26.5733 2.97979 27.954L2.55869 29.7719ZM10.6127 33.5066L8.14354 34.0819L8.53474 35.764L10.3526 35.3406C11.7333 36.0931 13.2037 36.6615 14.7294 37.0366L15.1436 35.3613C13.5547 34.9658 12.0332 34.3369 10.6288 33.4951L10.6127 33.5066ZM19.1591 4.20165C17.1949 4.20226 15.25 4.58974 13.4355 5.34198C11.621 6.09422 9.97246 7.19648 8.58396 8.58582C7.19547 9.97517 6.09422 11.6244 5.3431 13.4393C4.59198 15.2543 4.20569 17.1994 4.2063 19.1636C4.20887 21.977 5.00485 24.7326 6.50283 27.1141L5.06462 33.2535L11.1972 31.8153C14.5515 33.8285 18.5609 34.4479 22.3664 33.5407C26.1719 32.6335 29.4707 30.2718 31.556 26.9618C33.6413 23.6518 34.3472 19.6567 33.5225 15.8325C32.6979 12.0083 30.4082 8.6592 27.144 6.50279C24.7532 4.99693 21.9847 4.19909 19.1591 4.20165Z" fill="black"/>
</g>
<defs>
<clipPath id="clip0_2054_6">
<rect width="36.8182" height="36.8182" fill="white" transform="translate(0.75 0.75)"/>
</clipPath>
</defs>
</svg>