<svg xmlns="http://www.w3.org/2000/svg" width="60" height="60" viewBox="0 0 60 60" fill="none">
<rect x="0.75" y="0.75" width="58.5" height="58.5" rx="29.25" fill="#4C83F2" stroke="black" stroke-width="1.5"/>
<g clip-path="url(#clip0_2046_3775)">
<path d="M25.6799 12.5263L26.0827 14.1621C24.4901 14.5567 22.9657 15.1877 21.5602 16.0341L20.6984 14.5873C22.2438 13.6513 23.9251 12.9563 25.6799 12.5263ZM34.3199 12.5263L33.9194 14.1598C35.5119 14.5545 37.0364 15.1855 38.4419 16.0318L39.3149 14.5851C37.763 13.6514 36.079 12.9574 34.3199 12.5263ZM14.5874 20.6938C13.654 22.2422 12.9592 23.9223 12.5264 25.6776L14.1622 26.0826C14.5568 24.49 15.1878 22.9656 16.0342 21.5601L14.5874 20.6916V20.6938ZM13.6874 29.9998C13.6846 29.1818 13.7455 28.3649 13.8697 27.5563L12.2047 27.2998C11.9336 29.0881 11.9336 30.907 12.2047 32.6953L13.8697 32.4433C13.7455 31.6348 13.6846 30.8178 13.6874 29.9998ZM39.3014 45.4078L38.4374 43.9678C37.0354 44.8159 35.5128 45.4463 33.9217 45.8376L34.3267 47.4756C36.0792 47.0398 37.7563 46.3427 39.3014 45.4078ZM46.3147 29.9998C46.3147 30.8203 46.2532 31.6348 46.1302 32.4433L47.7952 32.6953C48.0662 30.907 48.0662 29.0881 47.7952 27.2998L46.1302 27.5563C46.2532 28.3663 46.3147 29.1808 46.3147 29.9998ZM47.4757 34.3153L45.8377 33.9103C45.4435 35.5044 44.8124 37.0304 43.9657 38.4373L45.4124 39.3081C46.3474 37.7571 47.043 36.0739 47.4757 34.3153ZM32.4457 46.1278C30.8257 46.3753 29.1764 46.3753 27.5564 46.1278L27.3044 47.7973C29.0912 48.068 30.9086 48.068 32.6954 47.7973L32.4434 46.1301L32.4457 46.1278ZM43.1332 39.6748C42.1615 40.9935 40.9955 42.1573 39.6749 43.1263L40.6784 44.4876C42.133 43.4192 43.4186 42.1381 44.4922 40.6873L43.1332 39.6748ZM39.6749 16.8666C40.9957 17.8386 42.1612 19.0041 43.1332 20.3248L44.4922 19.3123C43.4224 17.8608 42.1406 16.5782 40.6897 15.5076L39.6749 16.8666ZM16.8667 20.3248C17.8378 19.0037 19.0038 17.8377 20.3249 16.8666L19.3124 15.5076C17.8609 16.5774 16.5783 17.8592 15.5077 19.3101L16.8667 20.3226V20.3248ZM45.4147 20.6916L43.9657 21.5623C44.8139 22.9641 45.4462 24.4873 45.8377 26.0781L47.4757 25.6731C47.0426 23.9185 46.3478 22.2392 45.4147 20.6916ZM27.5542 13.8696C29.174 13.6259 30.8213 13.6259 32.4412 13.8696L32.6932 12.2046C30.9063 11.934 29.089 11.934 27.3022 12.2046L27.5542 13.8696ZM17.7307 44.9398L14.2499 45.7498L15.0599 42.2646L13.4197 41.8821L12.6074 45.3651C12.5418 45.6445 12.5485 45.936 12.6269 46.2121C12.7054 46.4882 12.8529 46.7397 13.0556 46.9428C13.2583 47.146 13.5095 47.2941 13.7854 47.3732C14.0613 47.4522 14.3529 47.4596 14.6324 47.3946L18.1154 46.5913L17.7307 44.9398ZM13.7684 40.3768L15.4154 40.7548L15.9779 38.3406C15.1562 36.9634 14.5435 35.4719 14.1599 33.9148L12.5242 34.3198C12.8913 35.8111 13.4478 37.2493 14.1802 38.5993L13.7684 40.3768ZM21.6434 44.0286L19.2292 44.5911L19.6117 46.2358L21.3892 45.8218C22.7392 46.5576 24.1769 47.1133 25.6687 47.4801L26.0737 45.8421C24.5201 45.4553 23.0324 44.8404 21.6592 44.0173L21.6434 44.0286ZM29.9999 15.3748C28.0793 15.3754 26.1777 15.7543 24.4035 16.4898C22.6293 17.2253 21.0174 18.3031 19.6598 19.6616C18.3021 21.0201 17.2254 22.6326 16.4909 24.4072C15.7565 26.1819 15.3788 28.0837 15.3794 30.0043C15.3819 32.7552 16.1602 35.4496 17.6249 37.7781L16.2187 43.7811L22.2149 42.3748C25.4947 44.3433 29.415 44.9489 33.136 44.0619C36.8569 43.1748 40.0823 40.8657 42.1213 37.6292C44.1603 34.3928 44.8505 30.4865 44.0442 26.7472C43.2378 23.008 40.999 19.7333 37.8074 17.6248C35.4697 16.1524 32.7627 15.3723 29.9999 15.3748Z" fill="white"/>
</g>
<defs>
<clipPath id="clip0_2046_3775">
<rect width="36" height="36" fill="white" transform="translate(12 12)"/>
</clipPath>
</defs>
</svg>