<svg width="27" height="26" viewBox="0 0 27 26" fill="none" xmlns="http://www.w3.org/2000/svg">
<path fill-rule="evenodd" clip-rule="evenodd" d="M0.5 12.8289C0.5 5.74602 6.24399 0 13.3289 0C20.4139 0 26.1579 5.74602 26.1579 12.8289C26.1579 19.9119 20.4139 25.6579 13.3289 25.6579C6.24399 25.6579 0.5 19.9119 0.5 12.8289ZM19.9156 10.1821C19.9156 10.0404 19.9116 9.89856 19.9055 9.75677C20.5483 9.29763 21.1067 8.71695 21.5476 8.05524C20.9575 8.31858 20.3235 8.49413 19.6577 8.57515C20.337 8.17003 20.8582 7.52183 21.1047 6.75209C20.4686 7.13021 19.7644 7.40705 19.0156 7.54884C18.4146 6.91414 17.5605 6.51577 16.6139 6.51577C14.7969 6.51577 13.3236 7.98772 13.3236 9.80403C13.3236 10.0606 13.3533 10.3104 13.4093 10.5535C10.6747 10.4185 8.25006 9.10857 6.62754 7.11671C6.34463 7.60286 6.1819 8.16328 6.1819 8.77096C6.1819 9.91207 6.76325 10.9181 7.64643 11.5056C7.10694 11.4921 6.59918 11.3435 6.15624 11.0937C6.15489 11.1072 6.15489 11.1274 6.15489 11.1409V11.1409C6.15489 12.7344 7.28924 14.0646 8.79428 14.3617C8.51812 14.436 8.22778 14.4765 7.92799 14.4765C7.71597 14.4765 7.50936 14.4562 7.30882 14.4157C7.72745 15.7256 8.94215 16.6776 10.3824 16.7047C9.25612 17.5892 7.83751 18.1091 6.29601 18.1091C6.03065 18.1091 5.76867 18.0956 5.51142 18.0686C6.96717 19.0004 8.69705 19.5473 10.5545 19.5473C16.6058 19.5473 19.9156 14.5305 19.9156 10.1821Z" fill="white"/>
</svg>
