<svg width="31" height="31" viewBox="0 0 31 31" fill="none" xmlns="http://www.w3.org/2000/svg">
<path fill-rule="evenodd" clip-rule="evenodd" d="M0 15.3947C0 6.89522 6.89279 0 15.3947 0C23.8967 0 30.7895 6.89522 30.7895 15.3947C30.7895 23.8943 23.8967 30.7895 15.3947 30.7895C6.89279 30.7895 0 23.8943 0 15.3947ZM23.2988 12.2186C23.2988 12.0484 23.2939 11.8783 23.2866 11.7081C24.058 11.1572 24.728 10.4603 25.2571 9.66629C24.549 9.98229 23.7881 10.193 22.9892 10.2902C23.8043 9.80404 24.4299 9.0262 24.7256 8.10251C23.9623 8.55625 23.1173 8.88845 22.2187 9.05861C21.4976 8.29697 20.4726 7.81893 19.3366 7.81893C17.1563 7.81893 15.3883 9.58527 15.3883 11.7648C15.3883 12.0727 15.4239 12.3725 15.4912 12.6642C12.2097 12.5022 9.30007 10.9303 7.35305 8.54005C7.01355 9.12343 6.81828 9.79593 6.81828 10.5252C6.81828 11.8945 7.51591 13.1018 8.57571 13.8067C7.92832 13.7905 7.31902 13.6122 6.78749 13.3124C6.78587 13.3286 6.78587 13.3529 6.78587 13.3691C6.78587 15.2813 8.14709 16.8775 9.95314 17.234C9.62174 17.3231 9.27334 17.3718 8.91359 17.3718C8.65917 17.3718 8.41123 17.3475 8.17059 17.2988C8.67294 18.8707 10.1306 20.0132 11.8588 20.0456C10.5073 21.107 8.80501 21.7309 6.95521 21.7309C6.63679 21.7309 6.32241 21.7147 6.0137 21.6823C7.7606 22.8004 9.83646 23.4567 12.0655 23.4567C19.3269 23.4567 23.2988 17.4366 23.2988 12.2186Z" fill="#30100B"/>
</svg>
