<svg xmlns="http://www.w3.org/2000/svg" width="60" height="60" viewBox="0 0 60 60" fill="none">
  <rect x="0.75" y="0.75" width="58.5" height="58.5" rx="29.25" fill="#A3CD39" stroke="black" stroke-width="1.5"/>
  <path d="M30.6667 16C38.7671 16 45.3333 22.5663 45.3333 30.6667C45.3333 38.7671 38.7671 45.3333 30.6667 45.3333C28.0748 45.3375 25.5284 44.6516 23.2893 43.346L16.0059 45.3333L17.9888 38.0469C16.6822 35.8071 15.9957 33.2597 16 30.6667C16 22.5663 22.5663 16 30.6667 16ZM25.6683 23.7733L25.3749 23.7851C25.185 23.7966 24.9995 23.8465 24.8293 23.9317C24.6702 24.0218 24.525 24.1345 24.3981 24.2661C24.2221 24.4319 24.1224 24.5756 24.0153 24.7149C23.4729 25.4203 23.1808 26.2862 23.1852 27.176C23.1881 27.8947 23.3759 28.5943 23.6692 29.2484C24.2691 30.5713 25.2561 31.972 26.5585 33.27C26.8724 33.5824 27.1804 33.8963 27.5119 34.1881C29.1302 35.6129 31.0586 36.6404 33.1439 37.1889L33.9769 37.3165C34.2483 37.3312 34.5196 37.3107 34.7924 37.2975C35.2196 37.2754 35.6366 37.1597 36.0141 36.9587C36.2062 36.8597 36.3936 36.7521 36.5759 36.636C36.5759 36.636 36.6389 36.5949 36.7592 36.504C36.9572 36.3573 37.0789 36.2532 37.2432 36.0816C37.3649 35.9555 37.4705 35.8073 37.5512 35.6387C37.6656 35.3996 37.78 34.9435 37.8269 34.5636C37.8621 34.2732 37.8519 34.1148 37.8475 34.0165C37.8416 33.8596 37.7111 33.6968 37.5688 33.6279L36.7152 33.2451C36.7152 33.2451 35.4392 32.6892 34.6589 32.3343C34.5773 32.2986 34.4898 32.2782 34.4008 32.2741C34.3005 32.2638 34.1991 32.2751 34.1034 32.3072C34.0078 32.3394 33.9202 32.3916 33.8464 32.4604C33.8391 32.4575 33.7408 32.5411 32.6804 33.8259C32.6195 33.9076 32.5357 33.9694 32.4396 34.0034C32.3435 34.0374 32.2394 34.0419 32.1407 34.0165C32.0451 33.9909 31.9515 33.9586 31.8605 33.9197C31.6787 33.8435 31.6156 33.8141 31.4909 33.7613C30.6492 33.394 29.8698 32.8977 29.1809 32.2903C28.9961 32.1289 28.8245 31.9529 28.6485 31.7828C28.0715 31.2302 27.5687 30.6051 27.1525 29.9231L27.066 29.7837C27.0039 29.6901 26.9536 29.5891 26.9164 29.4831C26.8607 29.2675 27.0059 29.0944 27.0059 29.0944C27.0059 29.0944 27.3623 28.7043 27.528 28.4931C27.6893 28.2877 27.8257 28.0883 27.9137 27.946C28.0868 27.6673 28.1411 27.3813 28.0501 27.1599C27.6395 26.1567 27.2141 25.1579 26.7771 24.1664C26.6905 23.9699 26.4339 23.8291 26.2007 23.8012C26.1215 23.7924 26.0423 23.7836 25.9631 23.7777C25.7661 23.7679 25.5687 23.7699 25.372 23.7836L25.6668 23.7719L25.6683 23.7733Z" fill="white"/>
</svg>