<svg width="92" height="92" viewBox="0 0 92 92" fill="none" xmlns="http://www.w3.org/2000/svg">
<g filter="url(#filter0_d_173_4593)">
<rect x="16" y="16" width="60" height="60" rx="30" fill="#69BE28"/>
<path d="M46.6667 32C54.7671 32 61.3333 38.5663 61.3333 46.6667C61.3333 54.767 54.7671 61.3333 46.6667 61.3333C44.0748 61.3375 41.5284 60.6516 39.2893 59.346L32.0059 61.3333L33.9888 54.0469C32.6822 51.8071 31.9957 49.2597 32 46.6667C32 38.5663 38.5663 32 46.6667 32ZM41.6683 39.7733L41.3749 39.7851C41.185 39.7966 40.9995 39.8465 40.8293 39.9317C40.6702 40.0218 40.525 40.1345 40.3981 40.2661C40.2221 40.4319 40.1224 40.5756 40.0153 40.7149C39.4729 41.4203 39.1808 42.2862 39.1852 43.176C39.1881 43.8947 39.3759 44.5943 39.6692 45.2484C40.2691 46.5713 41.2561 47.972 42.5585 49.27C42.8724 49.5824 43.1804 49.8963 43.5119 50.1881C45.1302 51.6129 47.0586 52.6404 49.1439 53.1889L49.9769 53.3165C50.2483 53.3312 50.5196 53.3107 50.7924 53.2975C51.2196 53.2754 51.6366 53.1597 52.0141 52.9587C52.2062 52.8597 52.3936 52.7521 52.5759 52.636C52.5759 52.636 52.6389 52.5949 52.7592 52.504C52.9572 52.3573 53.0789 52.2532 53.2432 52.0816C53.3649 51.9555 53.4705 51.8073 53.5512 51.6387C53.6656 51.3996 53.78 50.9435 53.8269 50.5636C53.8621 50.2732 53.8519 50.1148 53.8475 50.0165C53.8416 49.8596 53.7111 49.6968 53.5688 49.6279L52.7152 49.2451C52.7152 49.2451 51.4392 48.6892 50.6589 48.3343C50.5773 48.2986 50.4898 48.2782 50.4008 48.2741C50.3005 48.2638 50.1991 48.2751 50.1034 48.3072C50.0078 48.3394 49.9202 48.3916 49.8464 48.4604C49.8391 48.4575 49.7408 48.5411 48.6804 49.8259C48.6195 49.9076 48.5357 49.9694 48.4396 50.0034C48.3435 50.0374 48.2394 50.0419 48.1407 50.0165C48.0451 49.9909 47.9515 49.9586 47.8605 49.9197C47.6787 49.8435 47.6156 49.8141 47.4909 49.7613C46.6492 49.394 45.8698 48.8977 45.1809 48.2903C44.9961 48.1289 44.8245 47.9529 44.6485 47.7828C44.0715 47.2302 43.5687 46.6051 43.1525 45.9231L43.066 45.7837C43.0039 45.6901 42.9536 45.5891 42.9164 45.4831C42.8607 45.2675 43.0059 45.0944 43.0059 45.0944C43.0059 45.0944 43.3623 44.7043 43.528 44.4931C43.6893 44.2877 43.8257 44.0883 43.9137 43.946C44.0868 43.6673 44.1411 43.3813 44.0501 43.1599C43.6395 42.1567 43.2141 41.1579 42.7771 40.1664C42.6905 39.9699 42.4339 39.8291 42.2007 39.8012C42.1215 39.7924 42.0423 39.7836 41.9631 39.7777C41.7661 39.7679 41.5687 39.7699 41.372 39.7836L41.6668 39.7719L41.6683 39.7733Z" fill="white"/>
</g>
<defs>
<filter id="filter0_d_173_4593" x="0" y="0" width="92" height="92" filterUnits="userSpaceOnUse" color-interpolation-filters="sRGB">
<feFlood flood-opacity="0" result="BackgroundImageFix"/>
<feColorMatrix in="SourceAlpha" type="matrix" values="0 0 0 0 0 0 0 0 0 0 0 0 0 0 0 0 0 0 127 0" result="hardAlpha"/>
<feOffset/>
<feGaussianBlur stdDeviation="8"/>
<feComposite in2="hardAlpha" operator="out"/>
<feColorMatrix type="matrix" values="0 0 0 0 0 0 0 0 0 0 0 0 0 0 0 0 0 0 0.2 0"/>
<feBlend mode="normal" in2="BackgroundImageFix" result="effect1_dropShadow_173_4593"/>
<feBlend mode="normal" in="SourceGraphic" in2="effect1_dropShadow_173_4593" result="shape"/>
</filter>
</defs>
</svg>
