<svg width="48" height="48" viewBox="0 0 48 48" fill="none" xmlns="http://www.w3.org/2000/svg">
<rect width="48" height="48" rx="5" fill="white"/>
<path d="M24 6C33.9414 6 42 14.0586 42 24C42 33.9414 33.9414 42 24 42C20.819 42.0051 17.694 41.1633 14.946 39.561L6.00723 42L8.44082 33.0576C6.83719 30.3088 5.99471 27.1824 6.00002 24C6.00002 14.0586 14.0586 6 24 6ZM17.8656 15.54L17.5056 15.5544C17.2726 15.5686 17.0448 15.6298 16.836 15.7344C16.6408 15.845 16.4625 15.9832 16.3068 16.1448C16.0908 16.3482 15.9684 16.5246 15.837 16.6956C15.1712 17.5612 14.8128 18.624 14.8182 19.716C14.8218 20.598 15.0522 21.4566 15.4122 22.2594C16.1484 23.883 17.3598 25.602 18.9582 27.195C19.3434 27.5784 19.7214 27.9636 20.1282 28.3218C22.1143 30.0704 24.4811 31.3315 27.0402 32.0046L28.0626 32.1612C28.3956 32.1792 28.7286 32.154 29.0634 32.1378C29.5876 32.1107 30.0995 31.9688 30.5628 31.722C30.7985 31.6006 31.0286 31.4684 31.2522 31.326C31.2522 31.326 31.3296 31.2756 31.4772 31.164C31.7202 30.984 31.8696 30.8562 32.0712 30.6456C32.2206 30.4908 32.3502 30.309 32.4492 30.102C32.5896 29.8086 32.73 29.2488 32.7876 28.7826C32.8308 28.4262 32.8182 28.2318 32.8128 28.1112C32.8056 27.9186 32.6454 27.7188 32.4708 27.6342L31.4232 27.1644C31.4232 27.1644 29.8572 26.4822 28.8996 26.0466C28.7994 26.0028 28.692 25.9778 28.5828 25.9728C28.4597 25.9601 28.3352 25.974 28.2179 26.0134C28.1005 26.0529 27.9929 26.1169 27.9024 26.2014C27.8934 26.1978 27.7728 26.3004 26.4714 27.8772C26.3967 27.9776 26.2938 28.0534 26.1759 28.0951C26.0579 28.1368 25.9302 28.1424 25.809 28.1112C25.6918 28.0797 25.5769 28.04 25.4652 27.9924C25.242 27.8988 25.1646 27.8628 25.0116 27.798C23.9785 27.3472 23.0221 26.7381 22.1766 25.9926C21.9498 25.7946 21.7392 25.5786 21.5232 25.3698C20.8151 24.6916 20.1979 23.9244 19.6872 23.0874L19.581 22.9164C19.5047 22.8015 19.4431 22.6775 19.3974 22.5474C19.329 22.2828 19.5072 22.0704 19.5072 22.0704C19.5072 22.0704 19.9446 21.5916 20.148 21.3324C20.346 21.0804 20.5134 20.8356 20.6214 20.661C20.8338 20.319 20.9004 19.968 20.7888 19.6962C20.2848 18.465 19.7628 17.2392 19.2264 16.0224C19.1202 15.7812 18.8052 15.6084 18.519 15.5742C18.4218 15.5634 18.3246 15.5526 18.2274 15.5454C17.9857 15.5334 17.7435 15.5358 17.502 15.5526L17.8638 15.5382L17.8656 15.54Z" fill="#295F4E"/>
</svg>
