<svg width="30" height="30" viewBox="0 0 30 30" fill="none" xmlns="http://www.w3.org/2000/svg">
<path fill-rule="evenodd" clip-rule="evenodd" d="M0 15.6029C0 7.64869 6.44741 1.19995 14.4 1.19995C22.3526 1.19995 28.8 7.64868 28.8 15.597C28.8 23.5512 22.3526 30 14.4 30C11.7037 30 9.17926 29.2591 7.02222 27.9669L0.497778 29.7747L2.35259 23.4919C0.865185 21.2278 0 18.5131 0 15.6029ZM22.0097 19.1237C22.1815 19.2008 22.2941 19.3667 22.3119 19.5564C22.3297 19.7757 22.3356 20.0365 22.2941 20.3388V20.3565C22.1756 21.1508 21.7134 21.8561 21.0556 22.3244C20.8067 22.5081 20.4985 22.68 20.1311 22.8222C19.3311 23.1245 18.6319 23.1186 18.2526 23.083C17.3222 22.9704 15.9356 22.6978 14.4067 21.9628C12.7534 21.1686 11.7104 20.2143 10.8689 19.4378C10.1222 18.7562 9.02003 17.7249 8.00669 16.0594C7.40817 15.0814 7.01114 14.1568 6.73854 13.3803C6.44817 12.5505 6.40076 11.6496 6.64373 10.8079C6.65262 10.7783 6.6615 10.7501 6.67039 10.722C6.67928 10.6938 6.68817 10.6657 6.69706 10.636C6.91632 9.97219 7.24817 9.46838 7.52669 9.13053C7.7578 8.84603 8.12521 8.50818 8.62891 8.43706C8.80669 8.41335 9.04965 8.41335 9.32225 8.41928H9.32229C9.41709 8.41928 9.50596 8.41928 9.58891 8.4252C9.83188 8.43706 10.063 8.52596 10.2408 8.686C10.2408 8.686 10.2882 8.72749 10.3297 8.76898C10.5726 9.01792 11.2008 10.636 11.5148 11.4718C11.6985 11.9756 11.7341 12.5268 11.5682 13.0365C11.5682 13.0365 11.5622 13.0424 11.5622 13.0484C11.2956 13.8723 10.6971 14.3168 10.4778 14.465C10.9163 15.2651 11.6985 16.492 13.0319 17.636C14.146 18.5962 15.2482 19.1652 16.066 19.503C16.2378 19.5742 16.4334 19.5267 16.5578 19.3845L18.1341 17.6064C18.2289 17.4937 18.3889 17.4641 18.5193 17.5234C19.1 17.7901 19.6822 18.0568 20.2645 18.3235C20.8467 18.5903 21.4289 18.857 22.0097 19.1237Z" fill="#30100B"/>
</svg>
